<?xml version="1.0" encoding="utf-8" standalone="no"?>
<!DOCTYPE svg PUBLIC "-//W3C//DTD SVG 1.1//EN"
  "http://www.w3.org/Graphics/SVG/1.1/DTD/svg11.dtd">
<svg xmlns:xlink="http://www.w3.org/1999/xlink" width="980.576533pt" height="310.79952pt" viewBox="0 0 980.576533 310.79952" xmlns="http://www.w3.org/2000/svg" version="1.1">
 <metadata>
  <rdf:RDF xmlns:dc="http://purl.org/dc/elements/1.1/" xmlns:cc="http://creativecommons.org/ns#" xmlns:rdf="http://www.w3.org/1999/02/22-rdf-syntax-ns#">
   <cc:Work>
    <dc:type rdf:resource="http://purl.org/dc/dcmitype/StillImage"/>
    <dc:date>2026-03-20T19:08:38.338918</dc:date>
    <dc:format>image/svg+xml</dc:format>
    <dc:creator>
     <cc:Agent>
      <dc:title>Matplotlib v3.10.8, https://matplotlib.org/</dc:title>
     </cc:Agent>
    </dc:creator>
   </cc:Work>
  </rdf:RDF>
 </metadata>
 <defs>
  <style type="text/css">*{stroke-linejoin: round; stroke-linecap: butt}</style>
 </defs>
 <g id="figure_1">
  <g id="patch_1">
   <path d="M 0 310.79952 
L 980.576533 310.79952 
L 980.576533 0 
L 0 0 
z
" style="fill: #ffffff"/>
  </g>
  <g id="axes_1">
   <g id="line2d_1">
    <path d="M 28.857787 135.751674 
L 256.264546 135.751674 
" clip-path="url(#pdbda459943)" style="fill: none; stroke: #174d43; stroke-width: 5.5; stroke-linecap: round"/>
   </g>
   <g id="line2d_2">
    <path d="M 39.68668 227.797267 
L 110.074486 227.797267 
" clip-path="url(#pdbda459943)" style="fill: none; stroke: #174d43; stroke-width: 5.5; stroke-linecap: round"/>
   </g>
   <g id="line2d_3">
    <path d="M 175.047846 227.797267 
L 245.435653 227.797267 
" clip-path="url(#pdbda459943)" style="fill: none; stroke: #174d43; stroke-width: 5.5; stroke-linecap: round"/>
   </g>
   <g id="line2d_4">
    <path d="M 142.561166 162.823907 
L 142.561166 200.725034 
" clip-path="url(#pdbda459943)" style="fill: none; stroke-dasharray: 11,11; stroke-dashoffset: 0; stroke: #8fa7a1; stroke-width: 2.2"/>
   </g>
   <g id="PathCollection_1">
    <defs>
     <path id="ma1c2d4075e" d="M 0 6.708204 
C 1.779036 6.708204 3.485448 6.001385 4.743416 4.743416 
C 6.001385 3.485448 6.708204 1.779036 6.708204 0 
C 6.708204 -1.779036 6.001385 -3.485448 4.743416 -4.743416 
C 3.485448 -6.001385 1.779036 -6.708204 0 -6.708204 
C -1.779036 -6.708204 -3.485448 -6.001385 -4.743416 -4.743416 
C -6.001385 -3.485448 -6.708204 -1.779036 -6.708204 0 
C -6.708204 1.779036 -6.001385 3.485448 -4.743416 4.743416 
C -3.485448 6.001385 -1.779036 6.708204 0 6.708204 
z
" style="stroke: #c4513e"/>
    </defs>
    <g clip-path="url(#pdbda459943)">
     <use xlink:href="#ma1c2d4075e" x="142.561166" y="135.751674" style="fill: #c4513e; stroke: #c4513e"/>
    </g>
   </g>
   <g id="text_1">
    <!-- $\mathbb{R}\setminus\{p\}$ splits into two components -->
    <g style="fill: #183a34" transform="translate(24.751166 281.941733) scale(0.14 -0.14)">
     <defs>
      <path id="STIXGeneral-Italic-211d" d="M 1229 4179 
L 3360 4179 
Q 3827 4179 4108 3894 
Q 4390 3610 4390 3142 
Q 4390 2554 4060 2186 
Q 3731 1818 3149 1715 
L 4026 0 
L 2925 0 
L 2125 1690 
L 1549 1690 
L 1094 0 
L 109 0 
L 1229 4179 
z
M 3866 3821 
L 3392 2022 
Q 3770 2144 3962 2438 
Q 4154 2733 4154 3136 
Q 4154 3584 3866 3821 
z
M 3142 1978 
L 3648 3872 
Q 3450 3942 3296 3942 
L 2150 3942 
L 1613 1926 
L 2630 1926 
Q 2957 1926 3142 1978 
z
M 3629 237 
L 2899 1696 
Q 2829 1683 2682 1683 
Q 2630 1683 2531 1686 
Q 2432 1690 2387 1690 
L 3072 237 
L 3629 237 
z
M 1907 3942 
L 1408 3942 
L 416 237 
L 915 237 
L 1907 3942 
z
" transform="scale(0.015625)"/>
      <path id="STIXGeneral-Regular-2216" d="M 2579 595 
L 2182 595 
L 160 2630 
L 557 2630 
L 2579 595 
z
" transform="scale(0.015625)"/>
      <path id="STIXGeneral-Regular-7b" d="M 2240 -1088 
L 2240 -1158 
Q 1702 -1152 1466 -998 
Q 1184 -819 1184 -262 
L 1184 870 
Q 1184 1203 1072 1350 
Q 960 1498 640 1600 
Q 960 1696 1072 1843 
Q 1184 1990 1184 2323 
L 1184 3462 
Q 1184 4019 1466 4192 
Q 1709 4346 2240 4352 
L 2240 4282 
Q 1907 4198 1782 4025 
Q 1658 3853 1658 3494 
L 1658 2419 
Q 1658 2022 1536 1856 
Q 1414 1690 1056 1594 
Q 1414 1504 1536 1337 
Q 1658 1171 1658 774 
L 1658 -301 
Q 1658 -659 1782 -832 
Q 1907 -1005 2240 -1088 
z
" transform="scale(0.015625)"/>
      <path id="STIXGeneral-Italic-70" d="M 1376 2739 
L 1190 2099 
Q 1670 2822 2285 2822 
Q 2637 2822 2829 2611 
Q 3021 2400 3021 2022 
Q 3021 1235 2422 582 
Q 1824 -70 1120 -70 
Q 890 -70 678 38 
Q 422 -1018 422 -1024 
Q 422 -1126 508 -1168 
Q 595 -1210 819 -1210 
L 819 -1312 
L -480 -1312 
L -480 -1210 
Q -275 -1203 -188 -1120 
Q -102 -1037 -45 -806 
L 691 1958 
Q 794 2330 794 2413 
Q 794 2586 512 2586 
L 371 2586 
L 358 2682 
L 1357 2822 
Q 1389 2822 1389 2797 
Q 1382 2765 1376 2739 
z
M 2445 2003 
Q 2445 2285 2352 2416 
Q 2259 2547 2048 2547 
Q 1798 2547 1548 2329 
Q 1299 2112 1184 1818 
Q 1043 1453 905 953 
Q 768 454 768 294 
Q 768 186 854 118 
Q 941 51 1075 51 
Q 1574 51 2003 659 
Q 2445 1274 2445 2003 
z
" transform="scale(0.015625)"/>
      <path id="STIXGeneral-Regular-7d" d="M 1888 3456 
L 1888 2323 
Q 1888 1990 2000 1843 
Q 2112 1696 2432 1600 
Q 2112 1498 2000 1350 
Q 1888 1203 1888 870 
L 1888 -269 
Q 1888 -826 1606 -998 
Q 1363 -1152 832 -1158 
L 832 -1088 
Q 1165 -1005 1289 -832 
Q 1414 -659 1414 -301 
L 1414 774 
Q 1414 1171 1536 1337 
Q 1658 1504 2016 1600 
Q 1658 1690 1536 1853 
Q 1414 2016 1414 2419 
L 1414 3494 
Q 1414 3853 1289 4025 
Q 1165 4198 832 4282 
L 832 4352 
Q 1370 4346 1606 4192 
Q 1888 4013 1888 3456 
z
" transform="scale(0.015625)"/>
      <path id="DejaVuSerif-20" transform="scale(0.015625)"/>
      <path id="DejaVuSerif-73" d="M 359 184 
L 359 959 
L 691 959 
Q 703 588 923 403 
Q 1144 219 1575 219 
Q 1963 219 2166 364 
Q 2369 509 2369 788 
Q 2369 1006 2220 1140 
Q 2072 1275 1594 1428 
L 1178 1569 
Q 750 1706 558 1912 
Q 366 2119 366 2438 
Q 366 2894 700 3153 
Q 1034 3413 1625 3413 
Q 1888 3413 2178 3344 
Q 2469 3275 2778 3144 
L 2778 2419 
L 2447 2419 
Q 2434 2741 2221 2922 
Q 2009 3103 1644 3103 
Q 1281 3103 1095 2975 
Q 909 2847 909 2591 
Q 909 2381 1050 2254 
Q 1191 2128 1613 1997 
L 2069 1856 
Q 2541 1709 2748 1489 
Q 2956 1269 2956 922 
Q 2956 450 2595 179 
Q 2234 -91 1600 -91 
Q 1278 -91 972 -22 
Q 666 47 359 184 
z
" transform="scale(0.015625)"/>
      <path id="DejaVuSerif-70" d="M 1313 1825 
L 1313 1497 
Q 1313 897 1542 583 
Q 1772 269 2209 269 
Q 2650 269 2876 622 
Q 3103 975 3103 1663 
Q 3103 2353 2876 2703 
Q 2650 3053 2209 3053 
Q 1772 3053 1542 2737 
Q 1313 2422 1313 1825 
z
M 738 2988 
L 184 2988 
L 184 3322 
L 1313 3322 
L 1313 2803 
Q 1481 3116 1742 3264 
Q 2003 3413 2388 3413 
Q 3000 3413 3387 2928 
Q 3775 2444 3775 1663 
Q 3775 881 3387 395 
Q 3000 -91 2388 -91 
Q 2003 -91 1742 57 
Q 1481 206 1313 519 
L 1313 -997 
L 1856 -997 
L 1856 -1331 
L 184 -1331 
L 184 -997 
L 738 -997 
L 738 2988 
z
" transform="scale(0.015625)"/>
      <path id="DejaVuSerif-6c" d="M 1313 331 
L 1856 331 
L 1856 0 
L 184 0 
L 184 331 
L 738 331 
L 738 4531 
L 184 4531 
L 184 4863 
L 1313 4863 
L 1313 331 
z
" transform="scale(0.015625)"/>
      <path id="DejaVuSerif-69" d="M 622 4353 
Q 622 4497 726 4603 
Q 831 4709 978 4709 
Q 1122 4709 1226 4603 
Q 1331 4497 1331 4353 
Q 1331 4206 1228 4103 
Q 1125 4000 978 4000 
Q 831 4000 726 4103 
Q 622 4206 622 4353 
z
M 1356 331 
L 1900 331 
L 1900 0 
L 231 0 
L 231 331 
L 781 331 
L 781 2988 
L 231 2988 
L 231 3322 
L 1356 3322 
L 1356 331 
z
" transform="scale(0.015625)"/>
      <path id="DejaVuSerif-74" d="M 691 2988 
L 184 2988 
L 184 3322 
L 691 3322 
L 691 4353 
L 1269 4353 
L 1269 3322 
L 2350 3322 
L 2350 2988 
L 1269 2988 
L 1269 878 
Q 1269 456 1350 337 
Q 1431 219 1650 219 
Q 1875 219 1978 351 
Q 2081 484 2088 781 
L 2522 781 
Q 2497 328 2275 118 
Q 2053 -91 1600 -91 
Q 1103 -91 897 129 
Q 691 350 691 878 
L 691 2988 
z
" transform="scale(0.015625)"/>
      <path id="DejaVuSerif-6e" d="M 263 0 
L 263 331 
L 781 331 
L 781 2988 
L 231 2988 
L 231 3322 
L 1356 3322 
L 1356 2731 
Q 1516 3069 1770 3241 
Q 2025 3413 2363 3413 
Q 2913 3413 3172 3097 
Q 3431 2781 3431 2113 
L 3431 331 
L 3944 331 
L 3944 0 
L 2356 0 
L 2356 331 
L 2853 331 
L 2853 1931 
Q 2853 2541 2703 2767 
Q 2553 2994 2175 2994 
Q 1775 2994 1565 2701 
Q 1356 2409 1356 1850 
L 1356 331 
L 1856 331 
L 1856 0 
L 263 0 
z
" transform="scale(0.015625)"/>
      <path id="DejaVuSerif-6f" d="M 1925 219 
Q 2388 219 2623 584 
Q 2859 950 2859 1663 
Q 2859 2375 2623 2739 
Q 2388 3103 1925 3103 
Q 1463 3103 1227 2739 
Q 991 2375 991 1663 
Q 991 950 1228 584 
Q 1466 219 1925 219 
z
M 1925 -91 
Q 1200 -91 759 389 
Q 319 869 319 1663 
Q 319 2456 758 2934 
Q 1197 3413 1925 3413 
Q 2653 3413 3092 2934 
Q 3531 2456 3531 1663 
Q 3531 869 3092 389 
Q 2653 -91 1925 -91 
z
" transform="scale(0.015625)"/>
      <path id="DejaVuSerif-77" d="M 3072 3322 
L 3922 728 
L 4672 2988 
L 4191 2988 
L 4191 3322 
L 5394 3322 
L 5394 2988 
L 5025 2988 
L 4038 0 
L 3559 0 
L 2741 2484 
L 1919 0 
L 1459 0 
L 475 2988 
L 103 2988 
L 103 3322 
L 1606 3322 
L 1606 2988 
L 1069 2988 
L 1813 728 
L 2669 3322 
L 3072 3322 
z
" transform="scale(0.015625)"/>
      <path id="DejaVuSerif-63" d="M 3291 997 
Q 3169 466 2822 187 
Q 2475 -91 1925 -91 
Q 1200 -91 759 389 
Q 319 869 319 1663 
Q 319 2459 759 2936 
Q 1200 3413 1925 3413 
Q 2241 3413 2553 3339 
Q 2866 3266 3181 3116 
L 3181 2266 
L 2847 2266 
Q 2781 2703 2561 2903 
Q 2341 3103 1931 3103 
Q 1466 3103 1228 2742 
Q 991 2381 991 1663 
Q 991 944 1227 581 
Q 1463 219 1931 219 
Q 2303 219 2525 412 
Q 2747 606 2828 997 
L 3291 997 
z
" transform="scale(0.015625)"/>
      <path id="DejaVuSerif-6d" d="M 3316 2675 
Q 3481 3041 3739 3227 
Q 3997 3413 4341 3413 
Q 4863 3413 5119 3089 
Q 5375 2766 5375 2113 
L 5375 331 
L 5894 331 
L 5894 0 
L 4300 0 
L 4300 331 
L 4800 331 
L 4800 2047 
Q 4800 2556 4650 2772 
Q 4500 2988 4153 2988 
Q 3769 2988 3567 2697 
Q 3366 2406 3366 1850 
L 3366 331 
L 3866 331 
L 3866 0 
L 2291 0 
L 2291 331 
L 2791 331 
L 2791 2069 
Q 2791 2566 2641 2777 
Q 2491 2988 2144 2988 
Q 1759 2988 1557 2697 
Q 1356 2406 1356 1850 
L 1356 331 
L 1856 331 
L 1856 0 
L 263 0 
L 263 331 
L 781 331 
L 781 2994 
L 231 2994 
L 231 3322 
L 1356 3322 
L 1356 2731 
Q 1516 3063 1762 3238 
Q 2009 3413 2322 3413 
Q 2709 3413 2968 3220 
Q 3228 3028 3316 2675 
z
" transform="scale(0.015625)"/>
      <path id="DejaVuSerif-65" d="M 3469 1600 
L 991 1600 
L 991 1575 
Q 991 903 1244 561 
Q 1497 219 1991 219 
Q 2369 219 2611 417 
Q 2853 616 2950 1006 
L 3413 1006 
Q 3275 459 2904 184 
Q 2534 -91 1931 -91 
Q 1203 -91 761 389 
Q 319 869 319 1663 
Q 319 2450 753 2931 
Q 1188 3413 1894 3413 
Q 2647 3413 3050 2948 
Q 3453 2484 3469 1600 
z
M 2791 1931 
Q 2772 2513 2545 2808 
Q 2319 3103 1894 3103 
Q 1497 3103 1269 2806 
Q 1041 2509 991 1931 
L 2791 1931 
z
" transform="scale(0.015625)"/>
     </defs>
     <use xlink:href="#STIXGeneral-Italic-211d" transform="translate(0 0.015625)"/>
     <use xlink:href="#STIXGeneral-Regular-2216" transform="translate(83.139978 0.015625)"/>
     <use xlink:href="#STIXGeneral-Regular-7b" transform="translate(140.379962 0.015625)"/>
     <use xlink:href="#STIXGeneral-Italic-70" transform="translate(188.379947 0.015625)"/>
     <use xlink:href="#STIXGeneral-Regular-7d" transform="translate(238.779941 0.015625)"/>
     <use xlink:href="#DejaVuSerif-20" transform="translate(286.779926 0.015625)"/>
     <use xlink:href="#DejaVuSerif-73" transform="translate(318.567035 0.015625)"/>
     <use xlink:href="#DejaVuSerif-70" transform="translate(369.885394 0.015625)"/>
     <use xlink:href="#DejaVuSerif-6c" transform="translate(433.899066 0.015625)"/>
     <use xlink:href="#DejaVuSerif-69" transform="translate(465.881488 0.015625)"/>
     <use xlink:href="#DejaVuSerif-74" transform="translate(497.86391 0.015625)"/>
     <use xlink:href="#DejaVuSerif-73" transform="translate(538.049457 0.015625)"/>
     <use xlink:href="#DejaVuSerif-20" transform="translate(589.367816 0.015625)"/>
     <use xlink:href="#DejaVuSerif-69" transform="translate(621.154926 0.015625)"/>
     <use xlink:href="#DejaVuSerif-6e" transform="translate(653.137347 0.015625)"/>
     <use xlink:href="#DejaVuSerif-74" transform="translate(717.541644 0.015625)"/>
     <use xlink:href="#DejaVuSerif-6f" transform="translate(757.727191 0.015625)"/>
     <use xlink:href="#DejaVuSerif-20" transform="translate(817.932269 0.015625)"/>
     <use xlink:href="#DejaVuSerif-74" transform="translate(849.719379 0.015625)"/>
     <use xlink:href="#DejaVuSerif-77" transform="translate(889.904926 0.015625)"/>
     <use xlink:href="#DejaVuSerif-6f" transform="translate(975.500629 0.015625)"/>
     <use xlink:href="#DejaVuSerif-20" transform="translate(1035.705707 0.015625)"/>
     <use xlink:href="#DejaVuSerif-63" transform="translate(1067.492816 0.015625)"/>
     <use xlink:href="#DejaVuSerif-6f" transform="translate(1123.498676 0.015625)"/>
     <use xlink:href="#DejaVuSerif-6d" transform="translate(1183.703754 0.015625)"/>
     <use xlink:href="#DejaVuSerif-70" transform="translate(1278.527972 0.015625)"/>
     <use xlink:href="#DejaVuSerif-6f" transform="translate(1342.541644 0.015625)"/>
     <use xlink:href="#DejaVuSerif-6e" transform="translate(1402.746722 0.015625)"/>
     <use xlink:href="#DejaVuSerif-65" transform="translate(1467.151019 0.015625)"/>
     <use xlink:href="#DejaVuSerif-6e" transform="translate(1526.330707 0.015625)"/>
     <use xlink:href="#DejaVuSerif-74" transform="translate(1590.735004 0.015625)"/>
     <use xlink:href="#DejaVuSerif-73" transform="translate(1630.920551 0.015625)"/>
    </g>
   </g>
   <g id="text_2">
    <!-- The Real Line -->
    <g style="fill: #183a34" transform="translate(72.85476 20.877187) scale(0.18 -0.18)">
     <defs>
      <path id="DejaVuSerif-Bold-54" d="M 1159 0 
L 1159 378 
L 1778 378 
L 1778 4238 
L 500 4238 
L 500 3500 
L 72 3500 
L 72 4666 
L 4697 4666 
L 4697 3500 
L 4275 3500 
L 4275 4238 
L 2988 4238 
L 2988 378 
L 3609 378 
L 3609 0 
L 1159 0 
z
" transform="scale(0.015625)"/>
      <path id="DejaVuSerif-Bold-68" d="M 219 0 
L 219 378 
L 691 378 
L 691 4488 
L 197 4488 
L 197 4863 
L 1797 4863 
L 1797 2853 
Q 1997 3150 2253 3281 
Q 2509 3413 2900 3413 
Q 3459 3413 3745 3083 
Q 4031 2753 4031 2113 
L 4031 378 
L 4506 378 
L 4506 0 
L 2522 0 
L 2522 378 
L 2925 378 
L 2925 2144 
Q 2925 2566 2817 2730 
Q 2709 2894 2444 2894 
Q 2109 2894 1953 2648 
Q 1797 2403 1797 1869 
L 1797 378 
L 2203 378 
L 2203 0 
L 219 0 
z
" transform="scale(0.015625)"/>
      <path id="DejaVuSerif-Bold-65" d="M 2566 1875 
Q 2566 2531 2444 2795 
Q 2322 3059 2028 3059 
Q 1744 3059 1620 2800 
Q 1497 2541 1497 1931 
L 1497 1875 
L 2566 1875 
z
M 3781 1503 
L 1497 1503 
L 1497 1478 
Q 1497 834 1690 548 
Q 1884 263 2316 263 
Q 2675 263 2897 453 
Q 3119 644 3181 1006 
L 3700 1006 
Q 3566 441 3166 175 
Q 2766 -91 2047 -91 
Q 1184 -91 723 364 
Q 263 819 263 1663 
Q 263 2488 734 2950 
Q 1206 3413 2047 3413 
Q 2872 3413 3312 2927 
Q 3753 2441 3781 1503 
z
" transform="scale(0.015625)"/>
      <path id="DejaVuSerif-Bold-20" transform="scale(0.015625)"/>
      <path id="DejaVuSerif-Bold-52" d="M 3397 2278 
Q 3675 2238 3865 2094 
Q 4056 1950 4197 1678 
L 4878 378 
L 5356 378 
L 5356 0 
L 3822 0 
L 3078 1409 
Q 2863 1847 2711 1967 
Q 2559 2088 2291 2088 
L 2100 2088 
L 2100 378 
L 2700 378 
L 2700 0 
L 300 0 
L 300 378 
L 897 378 
L 897 4288 
L 300 4288 
L 300 4666 
L 2963 4666 
Q 3775 4666 4217 4339 
Q 4659 4013 4659 3413 
Q 4659 2925 4345 2642 
Q 4031 2359 3397 2278 
z
M 2100 2463 
L 2509 2463 
Q 2947 2463 3183 2700 
Q 3419 2938 3419 3378 
Q 3419 3819 3183 4053 
Q 2947 4288 2509 4288 
L 2100 4288 
L 2100 2463 
z
" transform="scale(0.015625)"/>
      <path id="DejaVuSerif-Bold-61" d="M 3525 2041 
L 3525 378 
L 4000 378 
L 4000 0 
L 2419 0 
L 2419 422 
Q 2200 159 1931 34 
Q 1663 -91 1319 -91 
Q 809 -91 536 182 
Q 263 456 263 966 
Q 263 1525 655 1803 
Q 1047 2081 1838 2081 
L 2419 2081 
L 2419 2278 
Q 2419 2681 2228 2873 
Q 2038 3066 1638 3066 
Q 1306 3066 1126 2930 
Q 947 2794 872 2484 
L 519 2484 
L 519 3200 
Q 816 3306 1134 3359 
Q 1453 3413 1806 3413 
Q 2697 3413 3111 3081 
Q 3525 2750 3525 2041 
z
M 2419 1044 
L 2419 1709 
L 2003 1709 
Q 1694 1709 1528 1540 
Q 1363 1372 1363 1056 
Q 1363 741 1483 584 
Q 1603 428 1850 428 
Q 2106 428 2262 597 
Q 2419 766 2419 1044 
z
" transform="scale(0.015625)"/>
      <path id="DejaVuSerif-Bold-6c" d="M 1797 378 
L 2272 378 
L 2272 0 
L 219 0 
L 219 378 
L 691 378 
L 691 4488 
L 219 4488 
L 219 4863 
L 1797 4863 
L 1797 378 
z
" transform="scale(0.015625)"/>
      <path id="DejaVuSerif-Bold-4c" d="M 300 0 
L 300 378 
L 897 378 
L 897 4288 
L 300 4288 
L 300 4666 
L 2700 4666 
L 2700 4288 
L 2100 4288 
L 2100 428 
L 3938 428 
L 3938 1166 
L 4359 1166 
L 4359 0 
L 300 0 
z
" transform="scale(0.015625)"/>
      <path id="DejaVuSerif-Bold-69" d="M 588 4263 
Q 588 4516 763 4689 
Q 938 4863 1191 4863 
Q 1438 4863 1611 4689 
Q 1784 4516 1784 4263 
Q 1784 4016 1611 3842 
Q 1438 3669 1191 3669 
Q 938 3669 763 3841 
Q 588 4013 588 4263 
z
M 1797 378 
L 2272 378 
L 2272 0 
L 219 0 
L 219 378 
L 691 378 
L 691 2944 
L 219 2944 
L 219 3322 
L 1797 3322 
L 1797 378 
z
" transform="scale(0.015625)"/>
      <path id="DejaVuSerif-Bold-6e" d="M 219 0 
L 219 378 
L 691 378 
L 691 2944 
L 219 2944 
L 219 3322 
L 1797 3322 
L 1797 2853 
Q 1997 3150 2253 3281 
Q 2509 3413 2900 3413 
Q 3459 3413 3745 3083 
Q 4031 2753 4031 2113 
L 4031 378 
L 4506 378 
L 4506 0 
L 2522 0 
L 2522 378 
L 2925 378 
L 2925 2144 
Q 2925 2566 2817 2730 
Q 2709 2894 2444 2894 
Q 2109 2894 1953 2648 
Q 1797 2403 1797 1869 
L 1797 378 
L 2203 378 
L 2203 0 
L 219 0 
z
" transform="scale(0.015625)"/>
     </defs>
     <use xlink:href="#DejaVuSerif-Bold-54"/>
     <use xlink:href="#DejaVuSerif-Bold-68" transform="translate(74.414062 0)"/>
     <use xlink:href="#DejaVuSerif-Bold-65" transform="translate(147.119141 0)"/>
     <use xlink:href="#DejaVuSerif-Bold-20" transform="translate(210.742188 0)"/>
     <use xlink:href="#DejaVuSerif-Bold-52" transform="translate(245.556641 0)"/>
     <use xlink:href="#DejaVuSerif-Bold-65" transform="translate(328.662109 0)"/>
     <use xlink:href="#DejaVuSerif-Bold-61" transform="translate(392.285156 0)"/>
     <use xlink:href="#DejaVuSerif-Bold-6c" transform="translate(457.080078 0)"/>
     <use xlink:href="#DejaVuSerif-Bold-20" transform="translate(495.068359 0)"/>
     <use xlink:href="#DejaVuSerif-Bold-4c" transform="translate(529.882812 0)"/>
     <use xlink:href="#DejaVuSerif-Bold-69" transform="translate(600.195312 0)"/>
     <use xlink:href="#DejaVuSerif-Bold-6e" transform="translate(638.183594 0)"/>
     <use xlink:href="#DejaVuSerif-Bold-65" transform="translate(710.888672 0)"/>
    </g>
   </g>
  </g>
  <g id="axes_2">
   <g id="patch_2">
    <path d="M 467.957693 211.553927 
C 486.624758 211.553927 504.52978 204.137424 517.729388 190.937816 
C 530.928996 177.738208 538.3455 159.833185 538.3455 141.16612 
C 538.3455 122.499056 530.928996 104.594033 517.729388 91.394425 
C 504.52978 78.194817 486.624758 70.778314 467.957693 70.778314 
C 449.290629 70.778314 431.385606 78.194817 418.185998 91.394425 
C 404.98639 104.594033 397.569887 122.499056 397.569887 141.16612 
C 397.569887 159.833185 404.98639 177.738208 418.185998 190.937816 
C 431.385606 204.137424 449.290629 211.553927 467.957693 211.553927 
L 467.957693 211.553927 
z
" clip-path="url(#p7023f1d90e)" style="fill: none; stroke: #174d43; stroke-width: 5.5; stroke-linejoin: miter"/>
   </g>
   <g id="line2d_5">
    <path d="M 397.569887 141.16612 
L 397.59277 142.960815 
L 397.661406 144.754343 
L 397.77575 146.545537 
L 397.935727 148.333234 
L 398.141233 150.11627 
L 398.392135 151.893487 
L 398.688269 153.663729 
L 399.029444 155.425845 
L 399.415437 157.178689 
L 399.845996 158.921122 
L 400.320843 160.652009 
L 400.839669 162.370227 
L 401.402136 164.074658 
L 402.007878 165.764193 
L 402.656501 167.437734 
L 403.347585 169.094192 
L 404.080679 170.732492 
L 404.855306 172.351567 
L 405.670964 173.950365 
L 406.527122 175.527846 
L 407.423222 177.082985 
L 408.358683 178.61477 
L 409.332896 180.122205 
L 410.345228 181.60431 
L 411.39502 183.060122 
L 412.481591 184.488694 
L 413.604232 185.889097 
L 414.762215 187.26042 
L 415.954787 188.601772 
L 417.181171 189.912281 
L 418.440572 191.191094 
L 419.732169 192.43738 
L 421.055122 193.650329 
L 422.408573 194.829152 
L 423.79164 195.973083 
L 425.203425 197.081377 
L 426.643009 198.153314 
L 428.109457 199.188197 
L 429.601815 200.185354 
L 431.119112 201.144135 
L 432.660362 202.063918 
L 434.224563 202.944104 
L 435.810698 203.784121 
L 437.417735 204.583423 
L 439.04463 205.34149 
L 440.690324 206.057829 
L 442.353748 206.731975 
L 444.03382 207.363489 
L 445.729448 207.95196 
L 447.439529 208.497007 
L 449.162951 208.998273 
L 450.898594 209.455435 
L 452.645329 209.868193 
L 454.40202 210.236281 
L 456.167525 210.559458 
L 457.940696 210.837514 
L 459.720381 211.070269 
L 461.505422 211.257571 
L 463.294658 211.399299 
L 465.086926 211.49536 
L 466.88106 211.545693 
L 468.675895 211.550263 
L 470.470262 211.509068 
L 472.262996 211.422136 
L 474.052931 211.289522 
L 475.838902 211.111312 
L 477.619749 210.887623 
L 479.394314 210.618601 
L 481.161442 210.304419 
L 482.919985 209.945283 
L 484.668799 209.541425 
L 486.406747 209.093108 
L 488.1327 208.600625 
L 489.845534 208.064295 
L 491.544137 207.484466 
L 493.227403 206.861516 
L 494.894239 206.195851 
L 496.54356 205.487901 
L 498.174294 204.738129 
L 499.785381 203.947022 
L 501.375773 203.115093 
L 502.944437 202.242884 
L 504.490351 201.330963 
L 506.012511 200.379921 
L 507.509927 199.390377 
L 508.981626 198.362975 
L 510.426651 197.298383 
L 511.844061 196.197293 
L 513.232936 195.060421 
L 514.592373 193.888506 
L 515.921487 192.68231 
L 517.219414 191.442618 
L 518.48531 190.170235 
L 519.718353 188.865989 
L 520.91774 187.530727 
L 522.082691 186.165319 
L 523.21245 184.770651 
L 524.306282 183.347632 
L 525.363474 181.897185 
L 526.383341 180.420254 
" clip-path="url(#p7023f1d90e)" style="fill: none; stroke-dasharray: 11,11; stroke-dashoffset: 0; stroke: #8fa7a1; stroke-width: 2.2"/>
   </g>
   <g id="PathCollection_2">
    <g clip-path="url(#p7023f1d90e)">
     <use xlink:href="#ma1c2d4075e" x="538.3455" y="141.16612" style="fill: #c4513e; stroke: #c4513e"/>
    </g>
   </g>
   <g id="text_3">
    <!-- $S^1\setminus\{p\}$ stays connected -->
    <g style="fill: #183a34" transform="translate(386.407693 281.941733) scale(0.14 -0.14)">
     <defs>
      <path id="STIXGeneral-Italic-53" d="M 3251 4269 
L 2995 2989 
L 2880 3008 
Q 2880 3539 2720 3795 
Q 2560 4051 2118 4051 
Q 1786 4051 1594 3881 
Q 1402 3712 1402 3411 
Q 1402 3168 1504 3005 
Q 1606 2842 2035 2413 
Q 2464 1978 2611 1715 
Q 2758 1453 2758 1133 
Q 2758 589 2390 237 
Q 2022 -115 1466 -115 
Q 1222 -115 800 32 
Q 595 109 499 109 
Q 288 109 224 -96 
L 109 -96 
L 326 1338 
L 454 1325 
Q 442 1267 442 1178 
Q 442 710 701 409 
Q 960 109 1363 109 
Q 1734 109 1968 336 
Q 2202 563 2202 928 
Q 2202 1139 2118 1308 
Q 2035 1478 1818 1715 
L 1568 1984 
Q 1549 2003 1459 2102 
Q 1370 2202 1318 2253 
Q 1030 2560 934 2755 
Q 838 2950 838 3213 
Q 838 3699 1168 3980 
Q 1498 4262 1978 4262 
Q 2310 4262 2522 4173 
Q 2707 4102 2816 4102 
Q 2925 4102 2982 4134 
Q 3040 4166 3104 4269 
L 3251 4269 
z
" transform="scale(0.015625)"/>
      <path id="STIXGeneral-Regular-31" d="M 2522 0 
L 755 0 
L 755 96 
Q 1107 115 1235 227 
Q 1363 339 1363 608 
L 1363 3482 
Q 1363 3795 1171 3795 
Q 1082 3795 883 3718 
L 710 3654 
L 710 3744 
L 1856 4326 
L 1914 4307 
L 1914 486 
Q 1914 275 2042 185 
Q 2170 96 2522 96 
L 2522 0 
z
" transform="scale(0.015625)"/>
      <path id="DejaVuSerif-61" d="M 2547 1044 
L 2547 1747 
L 1806 1747 
Q 1378 1747 1168 1562 
Q 959 1378 959 997 
Q 959 650 1171 447 
Q 1384 244 1747 244 
Q 2106 244 2326 466 
Q 2547 688 2547 1044 
z
M 3122 2075 
L 3122 331 
L 3634 331 
L 3634 0 
L 2547 0 
L 2547 359 
Q 2356 128 2106 18 
Q 1856 -91 1522 -91 
Q 969 -91 644 203 
Q 319 497 319 997 
Q 319 1513 691 1797 
Q 1063 2081 1741 2081 
L 2547 2081 
L 2547 2309 
Q 2547 2688 2317 2895 
Q 2088 3103 1672 3103 
Q 1328 3103 1125 2947 
Q 922 2791 872 2484 
L 575 2484 
L 575 3156 
Q 875 3284 1158 3348 
Q 1441 3413 1709 3413 
Q 2400 3413 2761 3070 
Q 3122 2728 3122 2075 
z
" transform="scale(0.015625)"/>
      <path id="DejaVuSerif-79" d="M 1381 -609 
L 1600 -56 
L 359 2988 
L -19 2988 
L -19 3322 
L 1509 3322 
L 1509 2988 
L 978 2988 
L 1913 703 
L 2847 2988 
L 2350 2988 
L 2350 3322 
L 3597 3322 
L 3597 2988 
L 3225 2988 
L 1703 -750 
Q 1547 -1138 1356 -1280 
Q 1166 -1422 819 -1422 
Q 672 -1422 517 -1397 
Q 363 -1372 206 -1325 
L 206 -691 
L 500 -691 
Q 519 -903 608 -995 
Q 697 -1088 884 -1088 
Q 1056 -1088 1161 -992 
Q 1266 -897 1381 -609 
z
" transform="scale(0.015625)"/>
      <path id="DejaVuSerif-64" d="M 3359 331 
L 3909 331 
L 3909 0 
L 2784 0 
L 2784 519 
Q 2616 206 2355 57 
Q 2094 -91 1709 -91 
Q 1097 -91 708 395 
Q 319 881 319 1663 
Q 319 2444 706 2928 
Q 1094 3413 1709 3413 
Q 2094 3413 2355 3264 
Q 2616 3116 2784 2803 
L 2784 4531 
L 2241 4531 
L 2241 4863 
L 3359 4863 
L 3359 331 
z
M 2784 1497 
L 2784 1825 
Q 2784 2422 2554 2737 
Q 2325 3053 1888 3053 
Q 1444 3053 1217 2703 
Q 991 2353 991 1663 
Q 991 975 1217 622 
Q 1444 269 1888 269 
Q 2325 269 2554 583 
Q 2784 897 2784 1497 
z
" transform="scale(0.015625)"/>
     </defs>
     <use xlink:href="#STIXGeneral-Italic-53" transform="translate(0 0.409375)"/>
     <use xlink:href="#STIXGeneral-Regular-31" transform="translate(60.921078 35.684375) scale(0.7)"/>
     <use xlink:href="#STIXGeneral-Regular-2216" transform="translate(114.770439 0.409375)"/>
     <use xlink:href="#STIXGeneral-Regular-7b" transform="translate(172.010423 0.409375)"/>
     <use xlink:href="#STIXGeneral-Italic-70" transform="translate(220.010408 0.409375)"/>
     <use xlink:href="#STIXGeneral-Regular-7d" transform="translate(270.410402 0.409375)"/>
     <use xlink:href="#DejaVuSerif-20" transform="translate(318.410387 0.409375)"/>
     <use xlink:href="#DejaVuSerif-73" transform="translate(350.197496 0.409375)"/>
     <use xlink:href="#DejaVuSerif-74" transform="translate(401.515855 0.409375)"/>
     <use xlink:href="#DejaVuSerif-61" transform="translate(441.701402 0.409375)"/>
     <use xlink:href="#DejaVuSerif-79" transform="translate(501.320543 0.409375)"/>
     <use xlink:href="#DejaVuSerif-73" transform="translate(557.814684 0.409375)"/>
     <use xlink:href="#DejaVuSerif-20" transform="translate(609.133043 0.409375)"/>
     <use xlink:href="#DejaVuSerif-63" transform="translate(640.920152 0.409375)"/>
     <use xlink:href="#DejaVuSerif-6f" transform="translate(696.926012 0.409375)"/>
     <use xlink:href="#DejaVuSerif-6e" transform="translate(757.13109 0.409375)"/>
     <use xlink:href="#DejaVuSerif-6e" transform="translate(821.535387 0.409375)"/>
     <use xlink:href="#DejaVuSerif-65" transform="translate(885.939684 0.409375)"/>
     <use xlink:href="#DejaVuSerif-63" transform="translate(945.119371 0.409375)"/>
     <use xlink:href="#DejaVuSerif-74" transform="translate(1001.12523 0.409375)"/>
     <use xlink:href="#DejaVuSerif-65" transform="translate(1041.310777 0.409375)"/>
     <use xlink:href="#DejaVuSerif-64" transform="translate(1100.490465 0.409375)"/>
    </g>
   </g>
   <g id="text_4">
    <!-- The Circle -->
    <g style="fill: #183a34" transform="translate(415.908162 20.877187) scale(0.18 -0.18)">
     <defs>
      <path id="DejaVuSerif-Bold-43" d="M 4769 1331 
Q 4584 609 4106 259 
Q 3628 -91 2822 -91 
Q 1641 -91 955 561 
Q 269 1213 269 2328 
Q 269 3447 955 4098 
Q 1641 4750 2822 4750 
Q 3238 4750 3688 4650 
Q 4138 4550 4641 4347 
L 4641 3200 
L 4244 3200 
Q 4122 3788 3800 4080 
Q 3478 4372 2950 4372 
Q 2269 4372 1937 3870 
Q 1606 3369 1606 2328 
Q 1606 1288 1937 788 
Q 2269 288 2956 288 
Q 3422 288 3717 547 
Q 4013 806 4147 1331 
L 4769 1331 
z
" transform="scale(0.015625)"/>
      <path id="DejaVuSerif-Bold-72" d="M 3438 3359 
L 3438 2369 
L 3084 2369 
Q 3066 2634 2941 2764 
Q 2816 2894 2578 2894 
Q 2216 2894 2006 2575 
Q 1797 2256 1797 1691 
L 1797 378 
L 2400 378 
L 2400 0 
L 219 0 
L 219 378 
L 691 378 
L 691 2944 
L 184 2944 
L 184 3322 
L 1797 3322 
L 1797 2731 
Q 1959 3078 2226 3245 
Q 2494 3413 2881 3413 
Q 2978 3413 3117 3398 
Q 3256 3384 3438 3359 
z
" transform="scale(0.015625)"/>
      <path id="DejaVuSerif-Bold-63" d="M 3609 1038 
Q 3491 469 3123 189 
Q 2756 -91 2125 -91 
Q 1238 -91 750 368 
Q 263 828 263 1663 
Q 263 2488 744 2950 
Q 1225 3413 2081 3413 
Q 2428 3413 2781 3347 
Q 3134 3281 3500 3150 
L 3500 2228 
L 3150 2228 
Q 3100 2650 2903 2854 
Q 2706 3059 2350 3059 
Q 1888 3059 1692 2746 
Q 1497 2434 1497 1663 
Q 1497 909 1687 586 
Q 1878 263 2309 263 
Q 2644 263 2845 463 
Q 3047 663 3091 1038 
L 3609 1038 
z
" transform="scale(0.015625)"/>
     </defs>
     <use xlink:href="#DejaVuSerif-Bold-54"/>
     <use xlink:href="#DejaVuSerif-Bold-68" transform="translate(74.414062 0)"/>
     <use xlink:href="#DejaVuSerif-Bold-65" transform="translate(147.119141 0)"/>
     <use xlink:href="#DejaVuSerif-Bold-20" transform="translate(210.742188 0)"/>
     <use xlink:href="#DejaVuSerif-Bold-43" transform="translate(245.556641 0)"/>
     <use xlink:href="#DejaVuSerif-Bold-69" transform="translate(325.146484 0)"/>
     <use xlink:href="#DejaVuSerif-Bold-72" transform="translate(363.134766 0)"/>
     <use xlink:href="#DejaVuSerif-Bold-63" transform="translate(415.820312 0)"/>
     <use xlink:href="#DejaVuSerif-Bold-6c" transform="translate(476.708984 0)"/>
     <use xlink:href="#DejaVuSerif-Bold-65" transform="translate(514.697266 0)"/>
    </g>
   </g>
  </g>
  <g id="axes_3">
   <g id="line2d_6">
    <path d="M 714.866373 108.679441 
L 904.372006 108.679441 
" clip-path="url(#p9095a0967e)" style="fill: none; stroke: #174d43; stroke-width: 5.5; stroke-linecap: round"/>
   </g>
   <g id="line2d_7">
    <path d="M 809.61919 108.679441 
L 809.61919 249.455053 
" clip-path="url(#p9095a0967e)" style="fill: none; stroke: #174d43; stroke-width: 5.5; stroke-linecap: round"/>
   </g>
   <g id="line2d_8">
    <path d="M 714.866373 108.679441 
L 774.425286 108.679441 
" clip-path="url(#p9095a0967e)" style="fill: none; stroke-dasharray: 11,11; stroke-dashoffset: 0; stroke: #8fa7a1; stroke-width: 2.2"/>
   </g>
   <g id="line2d_9">
    <path d="M 844.813093 108.679441 
L 904.372006 108.679441 
" clip-path="url(#p9095a0967e)" style="fill: none; stroke-dasharray: 11,11; stroke-dashoffset: 0; stroke: #8fa7a1; stroke-width: 2.2"/>
   </g>
   <g id="line2d_10">
    <path d="M 809.61919 162.823907 
L 809.61919 249.455053 
" clip-path="url(#p9095a0967e)" style="fill: none; stroke-dasharray: 11,11; stroke-dashoffset: 0; stroke: #8fa7a1; stroke-width: 2.2"/>
   </g>
   <g id="PathCollection_3">
    <g clip-path="url(#p9095a0967e)">
     <use xlink:href="#ma1c2d4075e" x="809.61919" y="108.679441" style="fill: #c4513e; stroke: #c4513e"/>
    </g>
   </g>
   <g id="text_5">
    <!-- Deleting the center creates three components -->
    <g style="fill: #183a34" transform="translate(645.861846 281.941733) scale(0.14 -0.14)">
     <defs>
      <path id="DejaVuSerif-44" d="M 1581 331 
L 2163 331 
Q 3072 331 3558 850 
Q 4044 1369 4044 2338 
Q 4044 3306 3559 3818 
Q 3075 4331 2163 4331 
L 1581 4331 
L 1581 331 
z
M 353 0 
L 353 331 
L 947 331 
L 947 4331 
L 353 4331 
L 353 4666 
L 2209 4666 
Q 3416 4666 4089 4050 
Q 4763 3434 4763 2338 
Q 4763 1238 4088 619 
Q 3413 0 2209 0 
L 353 0 
z
" transform="scale(0.015625)"/>
      <path id="DejaVuSerif-67" d="M 3359 2988 
L 3359 72 
Q 3359 -644 2965 -1033 
Q 2572 -1422 1844 -1422 
Q 1516 -1422 1216 -1362 
Q 916 -1303 641 -1184 
L 641 -488 
L 941 -488 
Q 997 -813 1206 -963 
Q 1416 -1113 1806 -1113 
Q 2313 -1113 2548 -827 
Q 2784 -541 2784 72 
L 2784 519 
Q 2616 206 2355 57 
Q 2094 -91 1709 -91 
Q 1097 -91 708 395 
Q 319 881 319 1663 
Q 319 2444 706 2928 
Q 1094 3413 1709 3413 
Q 2094 3413 2355 3264 
Q 2616 3116 2784 2803 
L 2784 3322 
L 3909 3322 
L 3909 2988 
L 3359 2988 
z
M 2784 1825 
Q 2784 2422 2554 2737 
Q 2325 3053 1888 3053 
Q 1444 3053 1217 2703 
Q 991 2353 991 1663 
Q 991 975 1217 622 
Q 1444 269 1888 269 
Q 2325 269 2554 583 
Q 2784 897 2784 1497 
L 2784 1825 
z
" transform="scale(0.015625)"/>
      <path id="DejaVuSerif-68" d="M 263 0 
L 263 331 
L 781 331 
L 781 4531 
L 231 4531 
L 231 4863 
L 1356 4863 
L 1356 2731 
Q 1516 3069 1770 3241 
Q 2025 3413 2363 3413 
Q 2913 3413 3172 3097 
Q 3431 2781 3431 2113 
L 3431 331 
L 3944 331 
L 3944 0 
L 2356 0 
L 2356 331 
L 2853 331 
L 2853 1931 
Q 2853 2541 2704 2764 
Q 2556 2988 2175 2988 
Q 1775 2988 1565 2697 
Q 1356 2406 1356 1850 
L 1356 331 
L 1856 331 
L 1856 0 
L 263 0 
z
" transform="scale(0.015625)"/>
      <path id="DejaVuSerif-72" d="M 3059 3328 
L 3059 2497 
L 2728 2497 
Q 2713 2744 2591 2866 
Q 2469 2988 2234 2988 
Q 1809 2988 1582 2694 
Q 1356 2400 1356 1850 
L 1356 331 
L 2022 331 
L 2022 0 
L 263 0 
L 263 331 
L 781 331 
L 781 2994 
L 231 2994 
L 231 3322 
L 1356 3322 
L 1356 2731 
Q 1525 3078 1790 3245 
Q 2056 3413 2438 3413 
Q 2578 3413 2733 3391 
Q 2888 3369 3059 3328 
z
" transform="scale(0.015625)"/>
     </defs>
     <use xlink:href="#DejaVuSerif-44"/>
     <use xlink:href="#DejaVuSerif-65" transform="translate(80.175781 0)"/>
     <use xlink:href="#DejaVuSerif-6c" transform="translate(139.355469 0)"/>
     <use xlink:href="#DejaVuSerif-65" transform="translate(171.337891 0)"/>
     <use xlink:href="#DejaVuSerif-74" transform="translate(230.517578 0)"/>
     <use xlink:href="#DejaVuSerif-69" transform="translate(270.703125 0)"/>
     <use xlink:href="#DejaVuSerif-6e" transform="translate(302.685547 0)"/>
     <use xlink:href="#DejaVuSerif-67" transform="translate(367.089844 0)"/>
     <use xlink:href="#DejaVuSerif-20" transform="translate(431.103516 0)"/>
     <use xlink:href="#DejaVuSerif-74" transform="translate(462.890625 0)"/>
     <use xlink:href="#DejaVuSerif-68" transform="translate(503.076172 0)"/>
     <use xlink:href="#DejaVuSerif-65" transform="translate(567.480469 0)"/>
     <use xlink:href="#DejaVuSerif-20" transform="translate(626.660156 0)"/>
     <use xlink:href="#DejaVuSerif-63" transform="translate(658.447266 0)"/>
     <use xlink:href="#DejaVuSerif-65" transform="translate(714.453125 0)"/>
     <use xlink:href="#DejaVuSerif-6e" transform="translate(773.632812 0)"/>
     <use xlink:href="#DejaVuSerif-74" transform="translate(838.037109 0)"/>
     <use xlink:href="#DejaVuSerif-65" transform="translate(878.222656 0)"/>
     <use xlink:href="#DejaVuSerif-72" transform="translate(937.402344 0)"/>
     <use xlink:href="#DejaVuSerif-20" transform="translate(985.205078 0)"/>
     <use xlink:href="#DejaVuSerif-63" transform="translate(1016.992188 0)"/>
     <use xlink:href="#DejaVuSerif-72" transform="translate(1072.998047 0)"/>
     <use xlink:href="#DejaVuSerif-65" transform="translate(1120.800781 0)"/>
     <use xlink:href="#DejaVuSerif-61" transform="translate(1179.980469 0)"/>
     <use xlink:href="#DejaVuSerif-74" transform="translate(1239.599609 0)"/>
     <use xlink:href="#DejaVuSerif-65" transform="translate(1279.785156 0)"/>
     <use xlink:href="#DejaVuSerif-73" transform="translate(1338.964844 0)"/>
     <use xlink:href="#DejaVuSerif-20" transform="translate(1390.283203 0)"/>
     <use xlink:href="#DejaVuSerif-74" transform="translate(1422.070312 0)"/>
     <use xlink:href="#DejaVuSerif-68" transform="translate(1462.255859 0)"/>
     <use xlink:href="#DejaVuSerif-72" transform="translate(1526.660156 0)"/>
     <use xlink:href="#DejaVuSerif-65" transform="translate(1574.462891 0)"/>
     <use xlink:href="#DejaVuSerif-65" transform="translate(1633.642578 0)"/>
     <use xlink:href="#DejaVuSerif-20" transform="translate(1692.822266 0)"/>
     <use xlink:href="#DejaVuSerif-63" transform="translate(1724.609375 0)"/>
     <use xlink:href="#DejaVuSerif-6f" transform="translate(1780.615234 0)"/>
     <use xlink:href="#DejaVuSerif-6d" transform="translate(1840.820312 0)"/>
     <use xlink:href="#DejaVuSerif-70" transform="translate(1935.644531 0)"/>
     <use xlink:href="#DejaVuSerif-6f" transform="translate(1999.658203 0)"/>
     <use xlink:href="#DejaVuSerif-6e" transform="translate(2059.863281 0)"/>
     <use xlink:href="#DejaVuSerif-65" transform="translate(2124.267578 0)"/>
     <use xlink:href="#DejaVuSerif-6e" transform="translate(2183.447266 0)"/>
     <use xlink:href="#DejaVuSerif-74" transform="translate(2247.851562 0)"/>
     <use xlink:href="#DejaVuSerif-73" transform="translate(2288.037109 0)"/>
    </g>
   </g>
   <g id="text_6">
    <!-- The T-Shape -->
    <g style="fill: #183a34" transform="translate(747.67669 20.877187) scale(0.18 -0.18)">
     <defs>
      <path id="DejaVuSerif-Bold-2d" d="M 347 2138 
L 2309 2138 
L 2309 1294 
L 347 1294 
L 347 2138 
z
" transform="scale(0.015625)"/>
      <path id="DejaVuSerif-Bold-53" d="M 494 225 
L 494 1331 
L 891 1331 
Q 981 806 1318 547 
Q 1656 288 2253 288 
Q 2738 288 2991 472 
Q 3244 656 3244 1013 
Q 3244 1294 3072 1450 
Q 2900 1606 2363 1741 
L 1663 1913 
Q 978 2088 700 2398 
Q 422 2709 422 3284 
Q 422 3978 883 4364 
Q 1344 4750 2175 4750 
Q 2584 4750 3026 4681 
Q 3469 4613 3944 4475 
L 3944 3444 
L 3547 3444 
Q 3456 3925 3150 4148 
Q 2844 4372 2278 4372 
Q 1816 4372 1580 4211 
Q 1344 4050 1344 3731 
Q 1344 3441 1506 3289 
Q 1669 3138 2303 2975 
L 3003 2803 
Q 3653 2641 3945 2297 
Q 4238 1953 4238 1350 
Q 4238 644 3750 276 
Q 3263 -91 2316 -91 
Q 1859 -91 1409 -12 
Q 959 66 494 225 
z
" transform="scale(0.015625)"/>
      <path id="DejaVuSerif-Bold-70" d="M 1728 1825 
L 1728 1497 
Q 1728 916 1876 656 
Q 2025 397 2356 397 
Q 2697 397 2836 672 
Q 2975 947 2975 1663 
Q 2975 2378 2836 2651 
Q 2697 2925 2356 2925 
Q 2025 2925 1876 2665 
Q 1728 2406 1728 1825 
z
M 622 2944 
L 147 2944 
L 147 3322 
L 1728 3322 
L 1728 2900 
Q 1869 3159 2106 3286 
Q 2344 3413 2694 3413 
Q 3403 3413 3811 2945 
Q 4219 2478 4219 1663 
Q 4219 847 3811 378 
Q 3403 -91 2694 -91 
Q 2344 -91 2106 36 
Q 1869 163 1728 422 
L 1728 -953 
L 2241 -953 
L 2241 -1331 
L 147 -1331 
L 147 -953 
L 622 -953 
L 622 2944 
z
" transform="scale(0.015625)"/>
     </defs>
     <use xlink:href="#DejaVuSerif-Bold-54"/>
     <use xlink:href="#DejaVuSerif-Bold-68" transform="translate(74.414062 0)"/>
     <use xlink:href="#DejaVuSerif-Bold-65" transform="translate(147.119141 0)"/>
     <use xlink:href="#DejaVuSerif-Bold-20" transform="translate(210.742188 0)"/>
     <use xlink:href="#DejaVuSerif-Bold-54" transform="translate(245.556641 0)"/>
     <use xlink:href="#DejaVuSerif-Bold-2d" transform="translate(303.470703 0)"/>
     <use xlink:href="#DejaVuSerif-Bold-53" transform="translate(344.974609 0)"/>
     <use xlink:href="#DejaVuSerif-Bold-68" transform="translate(417.191406 0)"/>
     <use xlink:href="#DejaVuSerif-Bold-61" transform="translate(489.896484 0)"/>
     <use xlink:href="#DejaVuSerif-Bold-70" transform="translate(554.691406 0)"/>
     <use xlink:href="#DejaVuSerif-Bold-65" transform="translate(624.613281 0)"/>
    </g>
   </g>
  </g>
 </g>
 <defs>
  <clipPath id="pdbda459943">
   <rect x="7.2" y="32.877187" width="270.722333" height="270.722333"/>
  </clipPath>
  <clipPath id="p7023f1d90e">
   <rect x="332.596527" y="32.877187" width="270.722333" height="270.722333"/>
  </clipPath>
  <clipPath id="p9095a0967e">
   <rect x="674.258023" y="32.877187" width="270.722332" height="270.722333"/>
  </clipPath>
 </defs>
</svg>
