<?xml version="1.0" encoding="utf-8" standalone="no"?>
<!DOCTYPE svg PUBLIC "-//W3C//DTD SVG 1.1//EN"
  "http://www.w3.org/Graphics/SVG/1.1/DTD/svg11.dtd">
<svg xmlns:xlink="http://www.w3.org/1999/xlink" width="802.087774pt" height="332.39952pt" viewBox="0 0 802.087774 332.39952" xmlns="http://www.w3.org/2000/svg" version="1.1">
 <metadata>
  <rdf:RDF xmlns:dc="http://purl.org/dc/elements/1.1/" xmlns:cc="http://creativecommons.org/ns#" xmlns:rdf="http://www.w3.org/1999/02/22-rdf-syntax-ns#">
   <cc:Work>
    <dc:type rdf:resource="http://purl.org/dc/dcmitype/StillImage"/>
    <dc:date>2026-03-20T19:08:38.693130</dc:date>
    <dc:format>image/svg+xml</dc:format>
    <dc:creator>
     <cc:Agent>
      <dc:title>Matplotlib v3.10.8, https://matplotlib.org/</dc:title>
     </cc:Agent>
    </dc:creator>
   </cc:Work>
  </rdf:RDF>
 </metadata>
 <defs>
  <style type="text/css">*{stroke-linejoin: round; stroke-linecap: butt}</style>
 </defs>
 <g id="figure_1">
  <g id="patch_1">
   <path d="M 0 332.39952 
L 802.087774 332.39952 
L 802.087774 0 
L 0 0 
z
" style="fill: #ffffff"/>
  </g>
  <g id="axes_1">
   <g id="patch_2">
    <path d="M 135.820589 217.041298 
C 149.774917 217.041298 163.15959 211.497184 173.026789 201.629985 
C 182.893989 191.762785 188.438102 178.378112 188.438102 164.423784 
C 188.438102 150.469456 182.893989 137.084783 173.026789 127.217583 
C 163.15959 117.350384 149.774917 111.80627 135.820589 111.80627 
C 121.866261 111.80627 108.481588 117.350384 98.614388 127.217583 
C 88.747188 137.084783 83.203075 150.469456 83.203075 164.423784 
C 83.203075 178.378112 88.747188 191.762785 98.614388 201.629985 
C 108.481588 211.497184 121.866261 217.041298 135.820589 217.041298 
L 135.820589 217.041298 
z
" clip-path="url(#p2d59a0ced7)" style="fill: none; stroke: #8fa7a1; stroke-width: 1.8; stroke-linejoin: miter"/>
   </g>
   <g id="line2d_1">
    <path d="M 170.898931 164.423784 
L 170.790796 161.671569 
L 170.467059 158.936322 
L 169.929714 156.234908 
L 169.182075 153.58398 
L 168.228751 150.999884 
L 167.075621 148.49855 
L 165.729792 146.0954 
L 164.199564 143.805252 
L 162.49437 141.642223 
L 160.624723 139.61965 
L 158.60215 137.750003 
L 156.439121 136.044809 
L 154.148972 134.51458 
L 151.745823 133.168752 
L 149.244489 132.015621 
L 146.660393 131.062298 
L 144.009465 130.314659 
L 141.308051 129.777314 
L 138.572804 129.453576 
L 135.820589 129.345442 
L 133.068374 129.453576 
L 130.333127 129.777314 
L 127.631712 130.314659 
L 124.980785 131.062298 
L 122.396688 132.015621 
L 119.895355 133.168752 
L 117.492205 134.51458 
L 115.202056 136.044809 
L 113.039028 137.750003 
L 111.016455 139.61965 
L 109.146808 141.642223 
L 107.441614 143.805252 
L 105.911385 146.0954 
L 104.565557 148.49855 
L 103.412426 150.999884 
L 102.459103 153.58398 
L 101.711464 156.234908 
L 101.174119 158.936322 
L 100.850381 161.671569 
L 100.742246 164.423784 
L 100.850381 167.175999 
L 101.174119 169.911246 
L 101.711464 172.61266 
L 102.459103 175.263588 
L 103.412426 177.847684 
L 104.565557 180.349018 
L 105.911385 182.752168 
L 107.441614 185.042316 
L 109.146808 187.205345 
L 111.016455 189.227918 
L 113.039028 191.097565 
L 115.202056 192.802759 
L 117.492205 194.332988 
L 119.895355 195.678816 
L 122.396688 196.831947 
L 124.980785 197.78527 
L 127.631712 198.532909 
L 130.333127 199.070254 
L 133.068374 199.393992 
L 135.820589 199.502126 
L 138.572804 199.393992 
L 141.308051 199.070254 
L 144.009465 198.532909 
L 146.660393 197.78527 
L 149.244489 196.831947 
L 151.745823 195.678816 
L 154.148972 194.332988 
L 156.439121 192.802759 
L 158.60215 191.097565 
L 160.624723 189.227918 
L 162.49437 187.205345 
L 164.199564 185.042316 
L 165.729792 182.752168 
L 167.075621 180.349018 
L 168.228751 177.847684 
L 169.182075 175.263588 
L 169.929714 172.61266 
L 170.467059 169.911246 
L 170.790796 167.175999 
L 170.898931 164.423784 
L 170.898931 164.423784 
" clip-path="url(#p2d59a0ced7)" style="fill: none; stroke: #174d43; stroke-width: 3.5; stroke-linecap: square"/>
   </g>
   <g id="line2d_2">
    <path d="M 217.670054 164.423784 
L 217.557883 160.140114 
L 217.221674 155.868185 
L 216.662352 151.619707 
L 215.881447 147.406323 
L 214.881101 143.239583 
L 213.664056 139.130908 
L 212.233648 135.091559 
L 210.593796 131.132607 
L 208.748997 127.264904 
L 206.704305 123.499051 
L 204.465327 119.84537 
L 202.038197 116.313875 
L 199.42957 112.914246 
L 196.646596 109.655801 
L 193.696901 106.547472 
L 190.588571 103.597777 
L 187.330126 100.814802 
L 183.930498 98.206175 
L 180.399003 95.779046 
L 176.745322 93.540068 
L 172.979469 91.495376 
L 169.111766 89.650576 
L 165.152814 88.010725 
L 161.113465 86.580316 
L 157.004789 85.363271 
L 152.83805 84.362926 
L 148.624666 83.582021 
L 144.376188 83.022698 
L 140.104259 82.68649 
L 135.820589 82.574318 
L 131.536919 82.68649 
L 127.26499 83.022698 
L 123.016511 83.582021 
L 118.803128 84.362926 
L 114.636388 85.363271 
L 110.527713 86.580316 
L 106.488364 88.010725 
L 102.529412 89.650576 
L 98.661709 91.495376 
L 94.895856 93.540068 
L 91.242175 95.779046 
L 87.71068 98.206175 
L 84.311051 100.814802 
L 81.052606 103.597777 
L 77.944277 106.547472 
L 74.994582 109.655801 
L 72.211607 112.914246 
L 69.60298 116.313875 
L 67.175851 119.84537 
L 64.936872 123.499051 
L 62.892181 127.264904 
L 61.047381 131.132607 
L 59.40753 135.091559 
L 57.977121 139.130908 
L 56.760076 143.239583 
L 55.75973 147.406323 
L 54.978826 151.619707 
L 54.419503 155.868185 
L 54.083295 160.140114 
L 53.971123 164.423784 
L 54.083295 168.707454 
L 54.419503 172.979383 
L 54.978826 177.227861 
L 55.75973 181.441245 
L 56.760076 185.607985 
L 57.977121 189.71666 
L 59.40753 193.756009 
L 61.047381 197.714961 
L 62.892181 201.582664 
L 64.936872 205.348517 
L 67.175851 209.002198 
L 69.60298 212.533693 
L 72.211607 215.933322 
L 74.994582 219.191767 
L 77.944277 222.300096 
L 81.052606 225.249791 
L 84.311051 228.032766 
L 87.71068 230.641393 
L 91.242175 233.068522 
L 94.895856 235.3075 
L 98.661709 237.352192 
L 102.529412 239.196992 
L 106.488364 240.836843 
L 110.527713 242.267252 
L 114.636388 243.484297 
L 118.803128 244.484642 
L 123.016511 245.265547 
L 127.26499 245.82487 
L 131.536919 246.161078 
L 135.820589 246.27325 
L 140.104259 246.161078 
L 144.376188 245.82487 
L 148.624666 245.265547 
L 152.83805 244.484642 
L 157.004789 243.484297 
L 161.113465 242.267252 
L 165.152814 240.836843 
L 169.111766 239.196992 
L 172.979469 237.352192 
L 176.745322 235.3075 
L 180.399003 233.068522 
L 183.930498 230.641393 
L 187.330126 228.032766 
L 190.588571 225.249791 
L 193.696901 222.300096 
L 196.646596 219.191767 
L 199.42957 215.933322 
L 202.038197 212.533693 
L 204.465327 209.002198 
L 206.704305 205.348517 
L 208.748997 201.582664 
L 210.593796 197.714961 
L 212.233648 193.756009 
L 213.664056 189.71666 
L 214.881101 185.607985 
L 215.881447 181.441245 
L 216.662352 177.227861 
L 217.221674 172.979383 
L 217.557883 168.707454 
L 217.670054 164.423784 
L 217.670054 164.423784 
" clip-path="url(#p2d59a0ced7)" style="fill: none; stroke: #174d43; stroke-opacity: 0.25; stroke-width: 5.5; stroke-linecap: square"/>
   </g>
   <g id="patch_3">
    <path d="M 196.074379 131.373694 
Q 217.671358 120.575204 236.868337 110.976715 
" style="fill: none; stroke: #c4513e; stroke-width: 2.4; stroke-linecap: round"/>
    <path d="M 232.396201 110.976715 
L 236.868337 110.976715 
L 234.185055 114.554424 
" style="fill: none; stroke: #c4513e; stroke-width: 2.4; stroke-linecap: round"/>
   </g>
   <g id="text_1">
    <!-- loop around the hole -->
    <g style="fill: #183a34" transform="translate(246.902006 106.623872) scale(0.13 -0.13)">
     <defs>
      <path id="DejaVuSerif-6c" d="M 1313 331 
L 1856 331 
L 1856 0 
L 184 0 
L 184 331 
L 738 331 
L 738 4531 
L 184 4531 
L 184 4863 
L 1313 4863 
L 1313 331 
z
" transform="scale(0.015625)"/>
      <path id="DejaVuSerif-6f" d="M 1925 219 
Q 2388 219 2623 584 
Q 2859 950 2859 1663 
Q 2859 2375 2623 2739 
Q 2388 3103 1925 3103 
Q 1463 3103 1227 2739 
Q 991 2375 991 1663 
Q 991 950 1228 584 
Q 1466 219 1925 219 
z
M 1925 -91 
Q 1200 -91 759 389 
Q 319 869 319 1663 
Q 319 2456 758 2934 
Q 1197 3413 1925 3413 
Q 2653 3413 3092 2934 
Q 3531 2456 3531 1663 
Q 3531 869 3092 389 
Q 2653 -91 1925 -91 
z
" transform="scale(0.015625)"/>
      <path id="DejaVuSerif-70" d="M 1313 1825 
L 1313 1497 
Q 1313 897 1542 583 
Q 1772 269 2209 269 
Q 2650 269 2876 622 
Q 3103 975 3103 1663 
Q 3103 2353 2876 2703 
Q 2650 3053 2209 3053 
Q 1772 3053 1542 2737 
Q 1313 2422 1313 1825 
z
M 738 2988 
L 184 2988 
L 184 3322 
L 1313 3322 
L 1313 2803 
Q 1481 3116 1742 3264 
Q 2003 3413 2388 3413 
Q 3000 3413 3387 2928 
Q 3775 2444 3775 1663 
Q 3775 881 3387 395 
Q 3000 -91 2388 -91 
Q 2003 -91 1742 57 
Q 1481 206 1313 519 
L 1313 -997 
L 1856 -997 
L 1856 -1331 
L 184 -1331 
L 184 -997 
L 738 -997 
L 738 2988 
z
" transform="scale(0.015625)"/>
      <path id="DejaVuSerif-20" transform="scale(0.015625)"/>
      <path id="DejaVuSerif-61" d="M 2547 1044 
L 2547 1747 
L 1806 1747 
Q 1378 1747 1168 1562 
Q 959 1378 959 997 
Q 959 650 1171 447 
Q 1384 244 1747 244 
Q 2106 244 2326 466 
Q 2547 688 2547 1044 
z
M 3122 2075 
L 3122 331 
L 3634 331 
L 3634 0 
L 2547 0 
L 2547 359 
Q 2356 128 2106 18 
Q 1856 -91 1522 -91 
Q 969 -91 644 203 
Q 319 497 319 997 
Q 319 1513 691 1797 
Q 1063 2081 1741 2081 
L 2547 2081 
L 2547 2309 
Q 2547 2688 2317 2895 
Q 2088 3103 1672 3103 
Q 1328 3103 1125 2947 
Q 922 2791 872 2484 
L 575 2484 
L 575 3156 
Q 875 3284 1158 3348 
Q 1441 3413 1709 3413 
Q 2400 3413 2761 3070 
Q 3122 2728 3122 2075 
z
" transform="scale(0.015625)"/>
      <path id="DejaVuSerif-72" d="M 3059 3328 
L 3059 2497 
L 2728 2497 
Q 2713 2744 2591 2866 
Q 2469 2988 2234 2988 
Q 1809 2988 1582 2694 
Q 1356 2400 1356 1850 
L 1356 331 
L 2022 331 
L 2022 0 
L 263 0 
L 263 331 
L 781 331 
L 781 2994 
L 231 2994 
L 231 3322 
L 1356 3322 
L 1356 2731 
Q 1525 3078 1790 3245 
Q 2056 3413 2438 3413 
Q 2578 3413 2733 3391 
Q 2888 3369 3059 3328 
z
" transform="scale(0.015625)"/>
      <path id="DejaVuSerif-75" d="M 2266 3322 
L 3341 3322 
L 3341 331 
L 3884 331 
L 3884 0 
L 2766 0 
L 2766 588 
Q 2606 256 2353 82 
Q 2100 -91 1766 -91 
Q 1213 -91 952 223 
Q 691 538 691 1209 
L 691 2988 
L 172 2988 
L 172 3322 
L 1269 3322 
L 1269 1388 
Q 1269 781 1417 556 
Q 1566 331 1947 331 
Q 2347 331 2556 625 
Q 2766 919 2766 1478 
L 2766 2988 
L 2266 2988 
L 2266 3322 
z
" transform="scale(0.015625)"/>
      <path id="DejaVuSerif-6e" d="M 263 0 
L 263 331 
L 781 331 
L 781 2988 
L 231 2988 
L 231 3322 
L 1356 3322 
L 1356 2731 
Q 1516 3069 1770 3241 
Q 2025 3413 2363 3413 
Q 2913 3413 3172 3097 
Q 3431 2781 3431 2113 
L 3431 331 
L 3944 331 
L 3944 0 
L 2356 0 
L 2356 331 
L 2853 331 
L 2853 1931 
Q 2853 2541 2703 2767 
Q 2553 2994 2175 2994 
Q 1775 2994 1565 2701 
Q 1356 2409 1356 1850 
L 1356 331 
L 1856 331 
L 1856 0 
L 263 0 
z
" transform="scale(0.015625)"/>
      <path id="DejaVuSerif-64" d="M 3359 331 
L 3909 331 
L 3909 0 
L 2784 0 
L 2784 519 
Q 2616 206 2355 57 
Q 2094 -91 1709 -91 
Q 1097 -91 708 395 
Q 319 881 319 1663 
Q 319 2444 706 2928 
Q 1094 3413 1709 3413 
Q 2094 3413 2355 3264 
Q 2616 3116 2784 2803 
L 2784 4531 
L 2241 4531 
L 2241 4863 
L 3359 4863 
L 3359 331 
z
M 2784 1497 
L 2784 1825 
Q 2784 2422 2554 2737 
Q 2325 3053 1888 3053 
Q 1444 3053 1217 2703 
Q 991 2353 991 1663 
Q 991 975 1217 622 
Q 1444 269 1888 269 
Q 2325 269 2554 583 
Q 2784 897 2784 1497 
z
" transform="scale(0.015625)"/>
      <path id="DejaVuSerif-74" d="M 691 2988 
L 184 2988 
L 184 3322 
L 691 3322 
L 691 4353 
L 1269 4353 
L 1269 3322 
L 2350 3322 
L 2350 2988 
L 1269 2988 
L 1269 878 
Q 1269 456 1350 337 
Q 1431 219 1650 219 
Q 1875 219 1978 351 
Q 2081 484 2088 781 
L 2522 781 
Q 2497 328 2275 118 
Q 2053 -91 1600 -91 
Q 1103 -91 897 129 
Q 691 350 691 878 
L 691 2988 
z
" transform="scale(0.015625)"/>
      <path id="DejaVuSerif-68" d="M 263 0 
L 263 331 
L 781 331 
L 781 4531 
L 231 4531 
L 231 4863 
L 1356 4863 
L 1356 2731 
Q 1516 3069 1770 3241 
Q 2025 3413 2363 3413 
Q 2913 3413 3172 3097 
Q 3431 2781 3431 2113 
L 3431 331 
L 3944 331 
L 3944 0 
L 2356 0 
L 2356 331 
L 2853 331 
L 2853 1931 
Q 2853 2541 2704 2764 
Q 2556 2988 2175 2988 
Q 1775 2988 1565 2697 
Q 1356 2406 1356 1850 
L 1356 331 
L 1856 331 
L 1856 0 
L 263 0 
z
" transform="scale(0.015625)"/>
      <path id="DejaVuSerif-65" d="M 3469 1600 
L 991 1600 
L 991 1575 
Q 991 903 1244 561 
Q 1497 219 1991 219 
Q 2369 219 2611 417 
Q 2853 616 2950 1006 
L 3413 1006 
Q 3275 459 2904 184 
Q 2534 -91 1931 -91 
Q 1203 -91 761 389 
Q 319 869 319 1663 
Q 319 2450 753 2931 
Q 1188 3413 1894 3413 
Q 2647 3413 3050 2948 
Q 3453 2484 3469 1600 
z
M 2791 1931 
Q 2772 2513 2545 2808 
Q 2319 3103 1894 3103 
Q 1497 3103 1269 2806 
Q 1041 2509 991 1931 
L 2791 1931 
z
" transform="scale(0.015625)"/>
     </defs>
     <use xlink:href="#DejaVuSerif-6c"/>
     <use xlink:href="#DejaVuSerif-6f" transform="translate(31.982422 0)"/>
     <use xlink:href="#DejaVuSerif-6f" transform="translate(92.1875 0)"/>
     <use xlink:href="#DejaVuSerif-70" transform="translate(152.392578 0)"/>
     <use xlink:href="#DejaVuSerif-20" transform="translate(216.40625 0)"/>
     <use xlink:href="#DejaVuSerif-61" transform="translate(248.193359 0)"/>
     <use xlink:href="#DejaVuSerif-72" transform="translate(307.8125 0)"/>
     <use xlink:href="#DejaVuSerif-6f" transform="translate(355.615234 0)"/>
     <use xlink:href="#DejaVuSerif-75" transform="translate(415.820312 0)"/>
     <use xlink:href="#DejaVuSerif-6e" transform="translate(480.224609 0)"/>
     <use xlink:href="#DejaVuSerif-64" transform="translate(544.628906 0)"/>
     <use xlink:href="#DejaVuSerif-20" transform="translate(608.642578 0)"/>
     <use xlink:href="#DejaVuSerif-74" transform="translate(640.429688 0)"/>
     <use xlink:href="#DejaVuSerif-68" transform="translate(680.615234 0)"/>
     <use xlink:href="#DejaVuSerif-65" transform="translate(745.019531 0)"/>
     <use xlink:href="#DejaVuSerif-20" transform="translate(804.199219 0)"/>
     <use xlink:href="#DejaVuSerif-68" transform="translate(835.986328 0)"/>
     <use xlink:href="#DejaVuSerif-6f" transform="translate(900.390625 0)"/>
     <use xlink:href="#DejaVuSerif-6c" transform="translate(960.595703 0)"/>
     <use xlink:href="#DejaVuSerif-65" transform="translate(992.578125 0)"/>
    </g>
   </g>
   <g id="text_2">
    <!-- $\mathbb{R}^2\setminus\{0\}\simeq S^1,\qquad \pi_1\cong \mathbb{Z}$ -->
    <g style="fill: #183a34" transform="translate(79.78476 298.890763) scale(0.15 -0.15)">
     <defs>
      <path id="STIXGeneral-Italic-211d" d="M 1229 4179 
L 3360 4179 
Q 3827 4179 4108 3894 
Q 4390 3610 4390 3142 
Q 4390 2554 4060 2186 
Q 3731 1818 3149 1715 
L 4026 0 
L 2925 0 
L 2125 1690 
L 1549 1690 
L 1094 0 
L 109 0 
L 1229 4179 
z
M 3866 3821 
L 3392 2022 
Q 3770 2144 3962 2438 
Q 4154 2733 4154 3136 
Q 4154 3584 3866 3821 
z
M 3142 1978 
L 3648 3872 
Q 3450 3942 3296 3942 
L 2150 3942 
L 1613 1926 
L 2630 1926 
Q 2957 1926 3142 1978 
z
M 3629 237 
L 2899 1696 
Q 2829 1683 2682 1683 
Q 2630 1683 2531 1686 
Q 2432 1690 2387 1690 
L 3072 237 
L 3629 237 
z
M 1907 3942 
L 1408 3942 
L 416 237 
L 915 237 
L 1907 3942 
z
" transform="scale(0.015625)"/>
      <path id="STIXGeneral-Regular-32" d="M 3034 877 
L 2688 0 
L 186 0 
L 186 77 
L 1325 1286 
Q 1773 1754 1965 2144 
Q 2157 2534 2157 2950 
Q 2157 3379 1920 3616 
Q 1683 3853 1267 3853 
Q 922 3853 720 3673 
Q 518 3494 326 3021 
L 192 3053 
Q 301 3648 630 3987 
Q 960 4326 1523 4326 
Q 2054 4326 2380 4006 
Q 2707 3686 2707 3200 
Q 2707 2477 1888 1613 
L 832 486 
L 2330 486 
Q 2541 486 2665 569 
Q 2790 653 2944 915 
L 3034 877 
z
" transform="scale(0.015625)"/>
      <path id="STIXGeneral-Regular-2216" d="M 2579 595 
L 2182 595 
L 160 2630 
L 557 2630 
L 2579 595 
z
" transform="scale(0.015625)"/>
      <path id="STIXGeneral-Regular-7b" d="M 2240 -1088 
L 2240 -1158 
Q 1702 -1152 1466 -998 
Q 1184 -819 1184 -262 
L 1184 870 
Q 1184 1203 1072 1350 
Q 960 1498 640 1600 
Q 960 1696 1072 1843 
Q 1184 1990 1184 2323 
L 1184 3462 
Q 1184 4019 1466 4192 
Q 1709 4346 2240 4352 
L 2240 4282 
Q 1907 4198 1782 4025 
Q 1658 3853 1658 3494 
L 1658 2419 
Q 1658 2022 1536 1856 
Q 1414 1690 1056 1594 
Q 1414 1504 1536 1337 
Q 1658 1171 1658 774 
L 1658 -301 
Q 1658 -659 1782 -832 
Q 1907 -1005 2240 -1088 
z
" transform="scale(0.015625)"/>
      <path id="STIXGeneral-Regular-30" d="M 3046 2112 
Q 3046 1683 2963 1302 
Q 2880 922 2717 602 
Q 2554 282 2266 96 
Q 1978 -90 1600 -90 
Q 1210 -90 915 108 
Q 621 307 461 640 
Q 301 973 227 1350 
Q 154 1728 154 2150 
Q 154 2746 301 3222 
Q 448 3699 790 4012 
Q 1133 4326 1626 4326 
Q 2253 4326 2649 3712 
Q 3046 3098 3046 2112 
z
M 2432 2080 
Q 2432 3091 2217 3625 
Q 2003 4160 1587 4160 
Q 1190 4160 979 3622 
Q 768 3085 768 2106 
Q 768 1120 979 598 
Q 1190 77 1600 77 
Q 2003 77 2217 598 
Q 2432 1120 2432 2080 
z
" transform="scale(0.015625)"/>
      <path id="STIXGeneral-Regular-7d" d="M 1888 3456 
L 1888 2323 
Q 1888 1990 2000 1843 
Q 2112 1696 2432 1600 
Q 2112 1498 2000 1350 
Q 1888 1203 1888 870 
L 1888 -269 
Q 1888 -826 1606 -998 
Q 1363 -1152 832 -1158 
L 832 -1088 
Q 1165 -1005 1289 -832 
Q 1414 -659 1414 -301 
L 1414 774 
Q 1414 1171 1536 1337 
Q 1658 1504 2016 1600 
Q 1658 1690 1536 1853 
Q 1414 2016 1414 2419 
L 1414 3494 
Q 1414 3853 1289 4025 
Q 1165 4198 832 4282 
L 832 4352 
Q 1370 4346 1606 4192 
Q 1888 4013 1888 3456 
z
" transform="scale(0.015625)"/>
      <path id="STIXGeneral-Regular-2243" d="M 3866 2848 
L 4077 2848 
Q 4045 2374 3769 1958 
Q 3494 1542 3066 1542 
Q 2803 1542 2460 1747 
Q 2118 1952 1804 2157 
Q 1491 2362 1306 2362 
Q 992 2362 800 2112 
Q 608 1862 518 1478 
L 307 1478 
Q 333 1997 617 2390 
Q 902 2784 1350 2784 
Q 1613 2784 1955 2579 
Q 2298 2374 2611 2169 
Q 2925 1965 3117 1965 
Q 3680 1965 3866 2848 
z
M 4077 352 
L 307 352 
L 307 774 
L 4077 774 
L 4077 352 
z
" transform="scale(0.015625)"/>
      <path id="STIXGeneral-Italic-53" d="M 3251 4269 
L 2995 2989 
L 2880 3008 
Q 2880 3539 2720 3795 
Q 2560 4051 2118 4051 
Q 1786 4051 1594 3881 
Q 1402 3712 1402 3411 
Q 1402 3168 1504 3005 
Q 1606 2842 2035 2413 
Q 2464 1978 2611 1715 
Q 2758 1453 2758 1133 
Q 2758 589 2390 237 
Q 2022 -115 1466 -115 
Q 1222 -115 800 32 
Q 595 109 499 109 
Q 288 109 224 -96 
L 109 -96 
L 326 1338 
L 454 1325 
Q 442 1267 442 1178 
Q 442 710 701 409 
Q 960 109 1363 109 
Q 1734 109 1968 336 
Q 2202 563 2202 928 
Q 2202 1139 2118 1308 
Q 2035 1478 1818 1715 
L 1568 1984 
Q 1549 2003 1459 2102 
Q 1370 2202 1318 2253 
Q 1030 2560 934 2755 
Q 838 2950 838 3213 
Q 838 3699 1168 3980 
Q 1498 4262 1978 4262 
Q 2310 4262 2522 4173 
Q 2707 4102 2816 4102 
Q 2925 4102 2982 4134 
Q 3040 4166 3104 4269 
L 3251 4269 
z
" transform="scale(0.015625)"/>
      <path id="STIXGeneral-Regular-31" d="M 2522 0 
L 755 0 
L 755 96 
Q 1107 115 1235 227 
Q 1363 339 1363 608 
L 1363 3482 
Q 1363 3795 1171 3795 
Q 1082 3795 883 3718 
L 710 3654 
L 710 3744 
L 1856 4326 
L 1914 4307 
L 1914 486 
Q 1914 275 2042 185 
Q 2170 96 2522 96 
L 2522 0 
z
" transform="scale(0.015625)"/>
      <path id="STIXGeneral-Regular-2c" d="M 531 -902 
L 467 -781 
Q 998 -422 998 -96 
Q 998 -13 909 -13 
Q 883 -13 822 -25 
Q 762 -38 723 -38 
Q 352 -38 352 288 
Q 352 454 457 553 
Q 563 653 736 653 
Q 954 653 1101 496 
Q 1248 339 1248 96 
Q 1248 -198 1053 -473 
Q 858 -749 531 -902 
z
" transform="scale(0.015625)"/>
      <path id="STIXGeneral-Italic-3c0" d="M 3430 2739 
L 3296 2266 
L 2643 2266 
Q 2624 2195 2502 1782 
Q 2381 1370 2297 1072 
Q 2214 774 2214 717 
Q 2214 448 2413 448 
Q 2694 448 2867 838 
L 2970 838 
Q 2886 486 2652 208 
Q 2419 -70 2093 -70 
Q 1901 -70 1808 67 
Q 1715 205 1715 410 
Q 1715 627 1824 922 
L 2310 2266 
L 1645 2266 
Q 1568 2061 1401 1469 
Q 1235 877 1068 512 
Q 902 147 672 -38 
Q 563 -115 442 -115 
Q 314 -115 218 -32 
Q 122 51 122 166 
Q 122 429 314 480 
Q 634 563 774 928 
L 1299 2266 
L 1261 2266 
Q 973 2266 819 2208 
Q 666 2150 474 1914 
L 371 1914 
Q 640 2362 931 2550 
Q 1222 2739 1696 2739 
L 3430 2739 
z
" transform="scale(0.015625)"/>
      <path id="STIXGeneral-Regular-2245" d="M 3949 3405 
L 4077 3405 
Q 4045 2925 3769 2480 
Q 3494 2035 3066 2035 
Q 2861 2035 2589 2182 
Q 2317 2330 2096 2509 
Q 1875 2688 1635 2835 
Q 1395 2982 1242 2982 
Q 934 2982 729 2704 
Q 525 2426 435 2035 
L 307 2035 
Q 333 2560 621 2982 
Q 909 3405 1350 3405 
Q 1613 3405 1971 3168 
Q 2330 2931 2659 2694 
Q 2989 2458 3181 2458 
Q 3725 2458 3949 3405 
z
M 4077 1107 
L 307 1107 
L 307 1530 
L 4077 1530 
L 4077 1107 
z
M 4077 -173 
L 307 -173 
L 307 250 
L 4077 250 
L 4077 -173 
z
" transform="scale(0.015625)"/>
      <path id="STIXGeneral-Italic-2124" d="M 4800 3942 
L 1382 256 
L 1382 237 
L 4128 237 
L 4070 0 
L 45 0 
L 45 237 
L 3494 3930 
L 3494 3942 
L 909 3942 
L 966 4179 
L 4800 4179 
L 4800 3942 
z
M 4467 3942 
L 3827 3942 
L 390 237 
L 1050 237 
L 4467 3942 
z
" transform="scale(0.015625)"/>
     </defs>
     <use xlink:href="#STIXGeneral-Italic-211d" transform="translate(0 0.409375)"/>
     <use xlink:href="#STIXGeneral-Regular-32" transform="translate(79.325763 35.684375) scale(0.7)"/>
     <use xlink:href="#STIXGeneral-Regular-2216" transform="translate(133.175124 0.409375)"/>
     <use xlink:href="#STIXGeneral-Regular-7b" transform="translate(190.415108 0.409375)"/>
     <use xlink:href="#STIXGeneral-Regular-30" transform="translate(238.415092 0.409375)"/>
     <use xlink:href="#STIXGeneral-Regular-7d" transform="translate(288.415077 0.409375)"/>
     <use xlink:href="#STIXGeneral-Regular-2243" transform="translate(350.855058 0.409375)"/>
     <use xlink:href="#STIXGeneral-Italic-53" transform="translate(433.795039 0.409375)"/>
     <use xlink:href="#STIXGeneral-Regular-31" transform="translate(494.716118 35.684375) scale(0.7)"/>
     <use xlink:href="#STIXGeneral-Regular-2c" transform="translate(534.125482 0.409375)"/>
     <use xlink:href="#STIXGeneral-Italic-3c0" transform="translate(717.965427 0.409375)"/>
     <use xlink:href="#STIXGeneral-Regular-31" transform="translate(768.365421 -12.81875) scale(0.7)"/>
     <use xlink:href="#STIXGeneral-Regular-2245" transform="translate(822.214781 0.409375)"/>
     <use xlink:href="#STIXGeneral-Italic-2124" transform="translate(905.154762 0.409375)"/>
    </g>
   </g>
   <g id="text_3">
    <!-- Punctured Plane -->
    <g style="fill: #183a34" transform="translate(69.14226 20.88) scale(0.18 -0.18)">
     <defs>
      <path id="DejaVuSerif-Bold-50" d="M 300 0 
L 300 378 
L 897 378 
L 897 4288 
L 300 4288 
L 300 4666 
L 2956 4666 
Q 3734 4666 4193 4295 
Q 4653 3925 4653 3303 
Q 4653 2678 4192 2304 
Q 3731 1931 2956 1931 
L 2100 1931 
L 2100 378 
L 2853 378 
L 2853 0 
L 300 0 
z
M 2100 2309 
L 2450 2309 
Q 2856 2309 3098 2579 
Q 3341 2850 3341 3303 
Q 3341 3753 3100 4020 
Q 2859 4288 2450 4288 
L 2100 4288 
L 2100 2309 
z
" transform="scale(0.015625)"/>
      <path id="DejaVuSerif-Bold-75" d="M 3963 3322 
L 3963 378 
L 4434 378 
L 4434 0 
L 2853 0 
L 2853 469 
Q 2656 172 2400 40 
Q 2144 -91 1753 -91 
Q 1194 -91 908 239 
Q 622 569 622 1209 
L 622 2944 
L 147 2944 
L 147 3322 
L 1728 3322 
L 1728 1381 
Q 1728 763 1831 595 
Q 1934 428 2209 428 
Q 2544 428 2698 675 
Q 2853 922 2853 1459 
L 2853 2944 
L 2450 2944 
L 2450 3322 
L 3963 3322 
z
" transform="scale(0.015625)"/>
      <path id="DejaVuSerif-Bold-6e" d="M 219 0 
L 219 378 
L 691 378 
L 691 2944 
L 219 2944 
L 219 3322 
L 1797 3322 
L 1797 2853 
Q 1997 3150 2253 3281 
Q 2509 3413 2900 3413 
Q 3459 3413 3745 3083 
Q 4031 2753 4031 2113 
L 4031 378 
L 4506 378 
L 4506 0 
L 2522 0 
L 2522 378 
L 2925 378 
L 2925 2144 
Q 2925 2566 2817 2730 
Q 2709 2894 2444 2894 
Q 2109 2894 1953 2648 
Q 1797 2403 1797 1869 
L 1797 378 
L 2203 378 
L 2203 0 
L 219 0 
z
" transform="scale(0.015625)"/>
      <path id="DejaVuSerif-Bold-63" d="M 3609 1038 
Q 3491 469 3123 189 
Q 2756 -91 2125 -91 
Q 1238 -91 750 368 
Q 263 828 263 1663 
Q 263 2488 744 2950 
Q 1225 3413 2081 3413 
Q 2428 3413 2781 3347 
Q 3134 3281 3500 3150 
L 3500 2228 
L 3150 2228 
Q 3100 2650 2903 2854 
Q 2706 3059 2350 3059 
Q 1888 3059 1692 2746 
Q 1497 2434 1497 1663 
Q 1497 909 1687 586 
Q 1878 263 2309 263 
Q 2644 263 2845 463 
Q 3047 663 3091 1038 
L 3609 1038 
z
" transform="scale(0.015625)"/>
      <path id="DejaVuSerif-Bold-74" d="M 634 2944 
L 153 2944 
L 153 3322 
L 634 3322 
L 634 4353 
L 1741 4353 
L 1741 3322 
L 2663 3322 
L 2663 2944 
L 1741 2944 
L 1741 909 
Q 1741 475 1809 369 
Q 1878 263 2059 263 
Q 2259 263 2356 397 
Q 2453 531 2459 813 
L 2925 813 
Q 2897 313 2651 111 
Q 2406 -91 1806 -91 
Q 1122 -91 878 123 
Q 634 338 634 909 
L 634 2944 
z
" transform="scale(0.015625)"/>
      <path id="DejaVuSerif-Bold-72" d="M 3438 3359 
L 3438 2369 
L 3084 2369 
Q 3066 2634 2941 2764 
Q 2816 2894 2578 2894 
Q 2216 2894 2006 2575 
Q 1797 2256 1797 1691 
L 1797 378 
L 2400 378 
L 2400 0 
L 219 0 
L 219 378 
L 691 378 
L 691 2944 
L 184 2944 
L 184 3322 
L 1797 3322 
L 1797 2731 
Q 1959 3078 2226 3245 
Q 2494 3413 2881 3413 
Q 2978 3413 3117 3398 
Q 3256 3384 3438 3359 
z
" transform="scale(0.015625)"/>
      <path id="DejaVuSerif-Bold-65" d="M 2566 1875 
Q 2566 2531 2444 2795 
Q 2322 3059 2028 3059 
Q 1744 3059 1620 2800 
Q 1497 2541 1497 1931 
L 1497 1875 
L 2566 1875 
z
M 3781 1503 
L 1497 1503 
L 1497 1478 
Q 1497 834 1690 548 
Q 1884 263 2316 263 
Q 2675 263 2897 453 
Q 3119 644 3181 1006 
L 3700 1006 
Q 3566 441 3166 175 
Q 2766 -91 2047 -91 
Q 1184 -91 723 364 
Q 263 819 263 1663 
Q 263 2488 734 2950 
Q 1206 3413 2047 3413 
Q 2872 3413 3312 2927 
Q 3753 2441 3781 1503 
z
" transform="scale(0.015625)"/>
      <path id="DejaVuSerif-Bold-64" d="M 2747 1497 
L 2747 1825 
Q 2747 2406 2597 2665 
Q 2447 2925 2119 2925 
Q 1775 2925 1636 2651 
Q 1497 2378 1497 1663 
Q 1497 947 1637 672 
Q 1778 397 2119 397 
Q 2447 397 2597 656 
Q 2747 916 2747 1497 
z
M 3853 378 
L 4325 378 
L 4325 0 
L 2747 0 
L 2747 422 
Q 2606 163 2367 36 
Q 2128 -91 1778 -91 
Q 1072 -91 667 378 
Q 263 847 263 1663 
Q 263 2481 667 2947 
Q 1072 3413 1778 3413 
Q 2128 3413 2367 3286 
Q 2606 3159 2747 2900 
L 2747 4488 
L 2272 4488 
L 2272 4863 
L 3853 4863 
L 3853 378 
z
" transform="scale(0.015625)"/>
      <path id="DejaVuSerif-Bold-20" transform="scale(0.015625)"/>
      <path id="DejaVuSerif-Bold-6c" d="M 1797 378 
L 2272 378 
L 2272 0 
L 219 0 
L 219 378 
L 691 378 
L 691 4488 
L 219 4488 
L 219 4863 
L 1797 4863 
L 1797 378 
z
" transform="scale(0.015625)"/>
      <path id="DejaVuSerif-Bold-61" d="M 3525 2041 
L 3525 378 
L 4000 378 
L 4000 0 
L 2419 0 
L 2419 422 
Q 2200 159 1931 34 
Q 1663 -91 1319 -91 
Q 809 -91 536 182 
Q 263 456 263 966 
Q 263 1525 655 1803 
Q 1047 2081 1838 2081 
L 2419 2081 
L 2419 2278 
Q 2419 2681 2228 2873 
Q 2038 3066 1638 3066 
Q 1306 3066 1126 2930 
Q 947 2794 872 2484 
L 519 2484 
L 519 3200 
Q 816 3306 1134 3359 
Q 1453 3413 1806 3413 
Q 2697 3413 3111 3081 
Q 3525 2750 3525 2041 
z
M 2419 1044 
L 2419 1709 
L 2003 1709 
Q 1694 1709 1528 1540 
Q 1363 1372 1363 1056 
Q 1363 741 1483 584 
Q 1603 428 1850 428 
Q 2106 428 2262 597 
Q 2419 766 2419 1044 
z
" transform="scale(0.015625)"/>
     </defs>
     <use xlink:href="#DejaVuSerif-Bold-50"/>
     <use xlink:href="#DejaVuSerif-Bold-75" transform="translate(75.195312 0)"/>
     <use xlink:href="#DejaVuSerif-Bold-6e" transform="translate(147.900391 0)"/>
     <use xlink:href="#DejaVuSerif-Bold-63" transform="translate(220.605469 0)"/>
     <use xlink:href="#DejaVuSerif-Bold-74" transform="translate(281.494141 0)"/>
     <use xlink:href="#DejaVuSerif-Bold-75" transform="translate(327.685547 0)"/>
     <use xlink:href="#DejaVuSerif-Bold-72" transform="translate(400.390625 0)"/>
     <use xlink:href="#DejaVuSerif-Bold-65" transform="translate(453.076172 0)"/>
     <use xlink:href="#DejaVuSerif-Bold-64" transform="translate(516.699219 0)"/>
     <use xlink:href="#DejaVuSerif-Bold-20" transform="translate(586.621094 0)"/>
     <use xlink:href="#DejaVuSerif-Bold-50" transform="translate(621.435547 0)"/>
     <use xlink:href="#DejaVuSerif-Bold-6c" transform="translate(696.630859 0)"/>
     <use xlink:href="#DejaVuSerif-Bold-61" transform="translate(734.619141 0)"/>
     <use xlink:href="#DejaVuSerif-Bold-6e" transform="translate(799.414062 0)"/>
     <use xlink:href="#DejaVuSerif-Bold-65" transform="translate(872.119141 0)"/>
    </g>
   </g>
   <g id="PathCollection_1">
    <defs>
     <path id="m1a5c535c2e" d="M 0 6.324555 
C 1.677292 6.324555 3.286112 5.65816 4.472136 4.472136 
C 5.65816 3.286112 6.324555 1.677292 6.324555 0 
C 6.324555 -1.677292 5.65816 -3.286112 4.472136 -4.472136 
C 3.286112 -5.65816 1.677292 -6.324555 0 -6.324555 
C -1.677292 -6.324555 -3.286112 -5.65816 -4.472136 -4.472136 
C -5.65816 -3.286112 -6.324555 -1.677292 -6.324555 0 
C -6.324555 1.677292 -5.65816 3.286112 -4.472136 4.472136 
C -3.286112 5.65816 -1.677292 6.324555 0 6.324555 
z
" style="stroke: #c4513e"/>
    </defs>
    <g clip-path="url(#p2d59a0ced7)">
     <use xlink:href="#m1a5c535c2e" x="135.820589" y="164.423784" style="fill: #c4513e; stroke: #c4513e"/>
    </g>
   </g>
  </g>
  <g id="axes_2">
   <g id="patch_4">
    <path d="M 598.642364 217.041298 
C 614.147173 217.041298 629.019032 210.881172 639.982587 199.917617 
C 650.946142 188.954061 657.106268 174.082202 657.106268 158.577394 
C 657.106268 143.072585 650.946142 128.200726 639.982587 117.237171 
C 629.019032 106.273615 614.147173 100.11349 598.642364 100.11349 
C 583.137555 100.11349 568.265696 106.273615 557.302141 117.237171 
C 546.338586 128.200726 540.17846 143.072585 540.17846 158.577394 
C 540.17846 174.082202 546.338586 188.954061 557.302141 199.917617 
C 568.265696 210.881172 583.137555 217.041298 598.642364 217.041298 
L 598.642364 217.041298 
z
" clip-path="url(#p63857c3923)" style="fill: none; stroke: #174d43; stroke-width: 3.8; stroke-linejoin: miter"/>
   </g>
   <g id="patch_5">
    <path d="M 598.642364 176.116565 
C 614.147173 176.116565 629.019032 174.268527 639.982587 170.97946 
C 650.946142 167.690394 657.106268 163.228836 657.106268 158.577394 
C 657.106268 153.925951 650.946142 149.464393 639.982587 146.175327 
C 629.019032 142.88626 614.147173 141.038222 598.642364 141.038222 
C 583.137555 141.038222 568.265696 142.88626 557.302141 146.175327 
C 546.338586 149.464393 540.17846 153.925951 540.17846 158.577394 
C 540.17846 163.228836 546.338586 167.690394 557.302141 170.97946 
C 568.265696 174.268527 583.137555 176.116565 598.642364 176.116565 
L 598.642364 176.116565 
z
" clip-path="url(#p63857c3923)" style="fill: none; stroke: #8fa7a1; stroke-width: 1.8; stroke-linejoin: miter"/>
   </g>
   <g id="patch_6">
    <path d="M 598.642364 217.041298 
C 603.293807 217.041298 607.755364 210.881172 611.044431 199.917617 
C 614.333498 188.954061 616.181535 174.082202 616.181535 158.577394 
C 616.181535 143.072585 614.333498 128.200726 611.044431 117.237171 
C 607.755364 106.273615 603.293807 100.11349 598.642364 100.11349 
C 593.990921 100.11349 589.529364 106.273615 586.240297 117.237171 
C 582.951231 128.200726 581.103193 143.072585 581.103193 158.577394 
C 581.103193 174.082202 582.951231 188.954061 586.240297 199.917617 
C 589.529364 210.881172 593.990921 217.041298 598.642364 217.041298 
L 598.642364 217.041298 
z
" clip-path="url(#p63857c3923)" style="fill: none; stroke: #8fa7a1; stroke-width: 1.8; stroke-linejoin: miter"/>
   </g>
   <g id="patch_7">
    <path d="M 724.339758 138.115027 
C 730.541681 138.115027 736.490425 135.650977 740.875847 131.265555 
C 745.261269 126.880133 747.725319 120.931389 747.725319 114.729466 
C 747.725319 108.527542 745.261269 102.578799 740.875847 98.193376 
C 736.490425 93.807954 730.541681 91.343904 724.339758 91.343904 
C 718.137834 91.343904 712.189091 93.807954 707.803668 98.193376 
C 703.418246 102.578799 700.954196 108.527542 700.954196 114.729466 
C 700.954196 120.931389 703.418246 126.880133 707.803668 131.265555 
C 712.189091 135.650977 718.137834 138.115027 724.339758 138.115027 
L 724.339758 138.115027 
z
" clip-path="url(#p63857c3923)" style="fill: none; stroke: #174d43; stroke-width: 3.2; stroke-linejoin: miter"/>
   </g>
   <g id="patch_8">
    <path d="M 724.339758 121.306655 
C 730.541681 121.306655 736.490425 120.613641 740.875847 119.380241 
C 745.261269 118.146841 747.725319 116.473757 747.725319 114.729466 
C 747.725319 112.985175 745.261269 111.31209 740.875847 110.078691 
C 736.490425 108.845291 730.541681 108.152276 724.339758 108.152276 
C 718.137834 108.152276 712.189091 108.845291 707.803668 110.078691 
C 703.418246 111.31209 700.954196 112.985175 700.954196 114.729466 
C 700.954196 116.473757 703.418246 118.146841 707.803668 119.380241 
C 712.189091 120.613641 718.137834 121.306655 724.339758 121.306655 
L 724.339758 121.306655 
z
" clip-path="url(#p63857c3923)" style="fill: none; stroke: #8fa7a1; stroke-width: 1.5; stroke-linejoin: miter"/>
   </g>
   <g id="patch_9">
    <path d="M 638.571169 143.435799 
Q 668.797467 135.192263 696.435031 127.654746 
" style="fill: none; stroke: #c4513e; stroke-width: 2.4; stroke-linecap: round"/>
    <path d="M 692.049741 126.777688 
L 696.435031 127.654746 
L 693.102211 130.636743 
" style="fill: none; stroke: #c4513e; stroke-width: 2.4; stroke-linecap: round"/>
   </g>
   <g id="text_4">
    <!-- radial retract -->
    <g style="fill: #183a34" transform="translate(706.800586 141.038222) scale(0.13 -0.13)">
     <defs>
      <path id="DejaVuSerif-69" d="M 622 4353 
Q 622 4497 726 4603 
Q 831 4709 978 4709 
Q 1122 4709 1226 4603 
Q 1331 4497 1331 4353 
Q 1331 4206 1228 4103 
Q 1125 4000 978 4000 
Q 831 4000 726 4103 
Q 622 4206 622 4353 
z
M 1356 331 
L 1900 331 
L 1900 0 
L 231 0 
L 231 331 
L 781 331 
L 781 2988 
L 231 2988 
L 231 3322 
L 1356 3322 
L 1356 331 
z
" transform="scale(0.015625)"/>
      <path id="DejaVuSerif-63" d="M 3291 997 
Q 3169 466 2822 187 
Q 2475 -91 1925 -91 
Q 1200 -91 759 389 
Q 319 869 319 1663 
Q 319 2459 759 2936 
Q 1200 3413 1925 3413 
Q 2241 3413 2553 3339 
Q 2866 3266 3181 3116 
L 3181 2266 
L 2847 2266 
Q 2781 2703 2561 2903 
Q 2341 3103 1931 3103 
Q 1466 3103 1228 2742 
Q 991 2381 991 1663 
Q 991 944 1227 581 
Q 1463 219 1931 219 
Q 2303 219 2525 412 
Q 2747 606 2828 997 
L 3291 997 
z
" transform="scale(0.015625)"/>
     </defs>
     <use xlink:href="#DejaVuSerif-72"/>
     <use xlink:href="#DejaVuSerif-61" transform="translate(47.802734 0)"/>
     <use xlink:href="#DejaVuSerif-64" transform="translate(107.421875 0)"/>
     <use xlink:href="#DejaVuSerif-69" transform="translate(171.435547 0)"/>
     <use xlink:href="#DejaVuSerif-61" transform="translate(203.417969 0)"/>
     <use xlink:href="#DejaVuSerif-6c" transform="translate(263.037109 0)"/>
     <use xlink:href="#DejaVuSerif-20" transform="translate(295.019531 0)"/>
     <use xlink:href="#DejaVuSerif-72" transform="translate(326.806641 0)"/>
     <use xlink:href="#DejaVuSerif-65" transform="translate(374.609375 0)"/>
     <use xlink:href="#DejaVuSerif-74" transform="translate(433.789062 0)"/>
     <use xlink:href="#DejaVuSerif-72" transform="translate(473.974609 0)"/>
     <use xlink:href="#DejaVuSerif-61" transform="translate(521.777344 0)"/>
     <use xlink:href="#DejaVuSerif-63" transform="translate(581.396484 0)"/>
     <use xlink:href="#DejaVuSerif-74" transform="translate(637.402344 0)"/>
    </g>
   </g>
   <g id="text_5">
    <!-- $\mathbb{R}^n\setminus\{0\}\simeq S^{n-1},\qquad \pi_1=0$ -->
    <g style="fill: #183a34" transform="translate(563.065292 298.890763) scale(0.15 -0.15)">
     <defs>
      <path id="STIXGeneral-Italic-6e" d="M 2944 749 
L 3034 666 
Q 2707 218 2534 80 
Q 2362 -58 2138 -58 
Q 2010 -58 1923 28 
Q 1837 115 1837 288 
Q 1837 390 1939 768 
L 2221 1805 
Q 2310 2150 2310 2310 
Q 2310 2496 2157 2496 
Q 1971 2496 1750 2275 
Q 1530 2054 1210 1587 
Q 998 1274 899 1024 
Q 800 774 570 0 
L 90 0 
L 704 2240 
Q 717 2304 717 2349 
Q 717 2445 630 2480 
Q 544 2515 301 2522 
L 301 2624 
Q 550 2675 857 2729 
Q 1165 2784 1338 2822 
L 1363 2810 
L 934 1414 
Q 1408 2170 1753 2496 
Q 2099 2822 2413 2822 
Q 2611 2822 2720 2716 
Q 2829 2611 2829 2432 
Q 2829 2272 2765 2048 
L 2406 749 
Q 2317 429 2317 358 
Q 2317 243 2419 243 
Q 2541 243 2810 582 
Q 2854 634 2944 749 
z
" transform="scale(0.015625)"/>
      <path id="STIXGeneral-Regular-2212" d="M 3974 1408 
L 410 1408 
L 410 1830 
L 3974 1830 
L 3974 1408 
z
" transform="scale(0.015625)"/>
      <path id="STIXGeneral-Regular-3d" d="M 4077 2048 
L 307 2048 
L 307 2470 
L 4077 2470 
L 4077 2048 
z
M 4077 768 
L 307 768 
L 307 1190 
L 4077 1190 
L 4077 768 
z
" transform="scale(0.015625)"/>
     </defs>
     <use xlink:href="#STIXGeneral-Italic-211d" transform="translate(0 0.409375)"/>
     <use xlink:href="#STIXGeneral-Italic-6e" transform="translate(79.325763 35.684375) scale(0.7)"/>
     <use xlink:href="#STIXGeneral-Regular-2216" transform="translate(133.175124 0.409375)"/>
     <use xlink:href="#STIXGeneral-Regular-7b" transform="translate(190.415108 0.409375)"/>
     <use xlink:href="#STIXGeneral-Regular-30" transform="translate(238.415092 0.409375)"/>
     <use xlink:href="#STIXGeneral-Regular-7d" transform="translate(288.415077 0.409375)"/>
     <use xlink:href="#STIXGeneral-Regular-2243" transform="translate(350.855058 0.409375)"/>
     <use xlink:href="#STIXGeneral-Italic-53" transform="translate(433.795039 0.409375)"/>
     <use xlink:href="#STIXGeneral-Italic-6e" transform="translate(494.716118 35.684375) scale(0.7)"/>
     <use xlink:href="#STIXGeneral-Regular-2212" transform="translate(539.824105 35.684375) scale(0.7)"/>
     <use xlink:href="#STIXGeneral-Regular-31" transform="translate(597.882091 35.684375) scale(0.7)"/>
     <use xlink:href="#STIXGeneral-Regular-2c" transform="translate(637.291456 0.409375)"/>
     <use xlink:href="#STIXGeneral-Italic-3c0" transform="translate(821.1314 0.409375)"/>
     <use xlink:href="#STIXGeneral-Regular-31" transform="translate(871.531394 -12.81875) scale(0.7)"/>
     <use xlink:href="#STIXGeneral-Regular-3d" transform="translate(925.380755 0.409375)"/>
     <use xlink:href="#STIXGeneral-Regular-30" transform="translate(1008.320736 0.409375)"/>
    </g>
   </g>
   <g id="text_6">
    <!-- Higher Dimensions, $n\geq 3$ -->
    <g style="fill: #183a34" transform="translate(520.900292 20.88) scale(0.18 -0.18)">
     <defs>
      <path id="DejaVuSerif-Bold-48" d="M 300 0 
L 300 378 
L 897 378 
L 897 4288 
L 300 4288 
L 300 4666 
L 2700 4666 
L 2700 4288 
L 2100 4288 
L 2100 2719 
L 3956 2719 
L 3956 4288 
L 3359 4288 
L 3359 4666 
L 5759 4666 
L 5759 4288 
L 5159 4288 
L 5159 378 
L 5759 378 
L 5759 0 
L 3359 0 
L 3359 378 
L 3956 378 
L 3956 2291 
L 2100 2291 
L 2100 378 
L 2700 378 
L 2700 0 
L 300 0 
z
" transform="scale(0.015625)"/>
      <path id="DejaVuSerif-Bold-69" d="M 588 4263 
Q 588 4516 763 4689 
Q 938 4863 1191 4863 
Q 1438 4863 1611 4689 
Q 1784 4516 1784 4263 
Q 1784 4016 1611 3842 
Q 1438 3669 1191 3669 
Q 938 3669 763 3841 
Q 588 4013 588 4263 
z
M 1797 378 
L 2272 378 
L 2272 0 
L 219 0 
L 219 378 
L 691 378 
L 691 2944 
L 219 2944 
L 219 3322 
L 1797 3322 
L 1797 378 
z
" transform="scale(0.015625)"/>
      <path id="DejaVuSerif-Bold-67" d="M 3853 2944 
L 3853 44 
Q 3853 -656 3354 -1039 
Q 2856 -1422 1947 -1422 
Q 1616 -1422 1275 -1370 
Q 934 -1319 575 -1216 
L 575 -422 
L 928 -422 
Q 975 -750 1192 -909 
Q 1409 -1069 1813 -1069 
Q 2325 -1069 2536 -823 
Q 2747 -578 2747 44 
L 2747 422 
Q 2606 163 2367 36 
Q 2128 -91 1778 -91 
Q 1072 -91 667 378 
Q 263 847 263 1663 
Q 263 2481 667 2947 
Q 1072 3413 1778 3413 
Q 2128 3413 2367 3286 
Q 2606 3159 2747 2900 
L 2747 3322 
L 4325 3322 
L 4325 2944 
L 3853 2944 
z
M 2747 1825 
Q 2747 2406 2597 2665 
Q 2447 2925 2119 2925 
Q 1775 2925 1636 2651 
Q 1497 2378 1497 1663 
Q 1497 947 1637 672 
Q 1778 397 2119 397 
Q 2447 397 2597 656 
Q 2747 916 2747 1497 
L 2747 1825 
z
" transform="scale(0.015625)"/>
      <path id="DejaVuSerif-Bold-68" d="M 219 0 
L 219 378 
L 691 378 
L 691 4488 
L 197 4488 
L 197 4863 
L 1797 4863 
L 1797 2853 
Q 1997 3150 2253 3281 
Q 2509 3413 2900 3413 
Q 3459 3413 3745 3083 
Q 4031 2753 4031 2113 
L 4031 378 
L 4506 378 
L 4506 0 
L 2522 0 
L 2522 378 
L 2925 378 
L 2925 2144 
Q 2925 2566 2817 2730 
Q 2709 2894 2444 2894 
Q 2109 2894 1953 2648 
Q 1797 2403 1797 1869 
L 1797 378 
L 2203 378 
L 2203 0 
L 219 0 
z
" transform="scale(0.015625)"/>
      <path id="DejaVuSerif-Bold-44" d="M 2100 378 
L 2534 378 
Q 3266 378 3605 847 
Q 3944 1316 3944 2338 
Q 3944 3353 3606 3820 
Q 3269 4288 2534 4288 
L 2100 4288 
L 2100 378 
z
M 300 0 
L 300 378 
L 897 378 
L 897 4288 
L 300 4288 
L 300 4666 
L 2694 4666 
Q 3950 4666 4615 4066 
Q 5281 3466 5281 2338 
Q 5281 1203 4614 601 
Q 3947 0 2694 0 
L 300 0 
z
" transform="scale(0.015625)"/>
      <path id="DejaVuSerif-Bold-6d" d="M 3884 2778 
Q 4116 3109 4384 3261 
Q 4653 3413 5013 3413 
Q 5584 3413 5867 3089 
Q 6150 2766 6150 2113 
L 6150 378 
L 6625 378 
L 6625 0 
L 4647 0 
L 4647 378 
L 5044 378 
L 5044 1947 
Q 5044 2569 4948 2731 
Q 4853 2894 4594 2894 
Q 4300 2894 4137 2667 
Q 3975 2441 3975 2022 
L 3975 378 
L 4372 378 
L 4372 0 
L 2472 0 
L 2472 378 
L 2869 378 
L 2869 1947 
Q 2869 2569 2772 2731 
Q 2675 2894 2419 2894 
Q 2122 2894 1959 2667 
Q 1797 2441 1797 2022 
L 1797 378 
L 2194 378 
L 2194 0 
L 219 0 
L 219 378 
L 691 378 
L 691 2944 
L 219 2944 
L 219 3322 
L 1797 3322 
L 1797 2853 
Q 1991 3144 2241 3278 
Q 2491 3413 2834 3413 
Q 3241 3413 3494 3258 
Q 3747 3103 3884 2778 
z
" transform="scale(0.015625)"/>
      <path id="DejaVuSerif-Bold-73" d="M 300 97 
L 300 1025 
L 653 1025 
Q 697 653 931 458 
Q 1166 263 1569 263 
Q 1906 263 2086 380 
Q 2266 497 2266 716 
Q 2266 916 2152 1025 
Q 2038 1134 1709 1216 
L 1253 1331 
Q 738 1459 506 1698 
Q 275 1938 275 2344 
Q 275 2884 650 3148 
Q 1025 3413 1806 3413 
Q 2100 3413 2433 3364 
Q 2766 3316 3169 3213 
L 3169 2375 
L 2816 2375 
Q 2788 2716 2573 2887 
Q 2359 3059 1959 3059 
Q 1622 3059 1448 2951 
Q 1275 2844 1275 2638 
Q 1275 2469 1375 2372 
Q 1475 2275 1734 2209 
L 2188 2094 
Q 2841 1928 3091 1684 
Q 3341 1441 3341 1006 
Q 3341 444 2939 176 
Q 2538 -91 1691 -91 
Q 1381 -91 1034 -44 
Q 688 3 300 97 
z
" transform="scale(0.015625)"/>
      <path id="DejaVuSerif-Bold-6f" d="M 2138 263 
Q 2488 263 2630 563 
Q 2772 863 2772 1663 
Q 2772 2463 2631 2761 
Q 2491 3059 2138 3059 
Q 1784 3059 1640 2757 
Q 1497 2456 1497 1663 
Q 1497 869 1640 566 
Q 1784 263 2138 263 
z
M 2138 -91 
Q 1259 -91 761 376 
Q 263 844 263 1663 
Q 263 2484 761 2948 
Q 1259 3413 2138 3413 
Q 3019 3413 3516 2948 
Q 4013 2484 4013 1663 
Q 4013 844 3514 376 
Q 3016 -91 2138 -91 
z
" transform="scale(0.015625)"/>
      <path id="DejaVuSerif-Bold-2c" d="M 84 -616 
Q 409 -353 562 -28 
Q 716 297 716 728 
L 716 997 
L 1606 997 
L 1606 972 
Q 1606 281 1317 -217 
Q 1028 -716 428 -1056 
L 84 -616 
z
" transform="scale(0.015625)"/>
      <path id="STIXGeneral-Regular-2265" d="M 4026 2074 
L 410 326 
L 410 730 
L 3174 2106 
L 410 3482 
L 410 3898 
L 4026 2138 
L 4026 2074 
z
M 4026 -659 
L 410 -659 
L 410 -237 
L 4026 -237 
L 4026 -659 
z
" transform="scale(0.015625)"/>
      <path id="STIXGeneral-Regular-33" d="M 390 3264 
L 288 3290 
Q 435 3770 748 4048 
Q 1062 4326 1542 4326 
Q 1990 4326 2265 4083 
Q 2541 3840 2541 3450 
Q 2541 2925 1946 2566 
Q 2298 2413 2477 2227 
Q 2758 1914 2758 1402 
Q 2758 890 2464 506 
Q 2246 211 1840 60 
Q 1434 -90 979 -90 
Q 262 -90 262 275 
Q 262 378 339 442 
Q 416 506 525 506 
Q 685 506 915 339 
Q 1197 141 1466 141 
Q 1818 141 2058 425 
Q 2298 710 2298 1120 
Q 2298 1856 1632 2048 
Q 1434 2112 979 2112 
L 979 2202 
Q 1338 2323 1517 2432 
Q 2035 2726 2035 3290 
Q 2035 3610 1852 3776 
Q 1670 3942 1344 3942 
Q 768 3942 390 3264 
z
" transform="scale(0.015625)"/>
     </defs>
     <use xlink:href="#DejaVuSerif-Bold-48" transform="translate(0 0.015625)"/>
     <use xlink:href="#DejaVuSerif-Bold-69" transform="translate(94.482422 0.015625)"/>
     <use xlink:href="#DejaVuSerif-Bold-67" transform="translate(132.470703 0.015625)"/>
     <use xlink:href="#DejaVuSerif-Bold-68" transform="translate(202.392578 0.015625)"/>
     <use xlink:href="#DejaVuSerif-Bold-65" transform="translate(275.097656 0.015625)"/>
     <use xlink:href="#DejaVuSerif-Bold-72" transform="translate(338.720703 0.015625)"/>
     <use xlink:href="#DejaVuSerif-Bold-20" transform="translate(391.40625 0.015625)"/>
     <use xlink:href="#DejaVuSerif-Bold-44" transform="translate(426.220703 0.015625)"/>
     <use xlink:href="#DejaVuSerif-Bold-69" transform="translate(512.939453 0.015625)"/>
     <use xlink:href="#DejaVuSerif-Bold-6d" transform="translate(550.927734 0.015625)"/>
     <use xlink:href="#DejaVuSerif-Bold-65" transform="translate(656.738281 0.015625)"/>
     <use xlink:href="#DejaVuSerif-Bold-6e" transform="translate(720.361328 0.015625)"/>
     <use xlink:href="#DejaVuSerif-Bold-73" transform="translate(793.066406 0.015625)"/>
     <use xlink:href="#DejaVuSerif-Bold-69" transform="translate(849.365234 0.015625)"/>
     <use xlink:href="#DejaVuSerif-Bold-6f" transform="translate(887.353516 0.015625)"/>
     <use xlink:href="#DejaVuSerif-Bold-6e" transform="translate(954.052734 0.015625)"/>
     <use xlink:href="#DejaVuSerif-Bold-73" transform="translate(1026.757812 0.015625)"/>
     <use xlink:href="#DejaVuSerif-Bold-2c" transform="translate(1083.056641 0.015625)"/>
     <use xlink:href="#DejaVuSerif-Bold-20" transform="translate(1117.871094 0.015625)"/>
     <use xlink:href="#STIXGeneral-Italic-6e" transform="translate(1152.685547 0.015625)"/>
     <use xlink:href="#STIXGeneral-Regular-2265" transform="translate(1217.125528 0.015625)"/>
     <use xlink:href="#STIXGeneral-Regular-33" transform="translate(1300.065509 0.015625)"/>
    </g>
   </g>
   <g id="PathCollection_2">
    <g clip-path="url(#p63857c3923)">
     <use xlink:href="#m1a5c535c2e" x="598.642364" y="158.577394" style="fill: #c4513e; stroke: #c4513e"/>
    </g>
   </g>
  </g>
 </g>
 <defs>
  <clipPath id="p2d59a0ced7">
   <rect x="7.2" y="32.88" width="292.31952" height="292.31952"/>
  </clipPath>
  <clipPath id="p63857c3923">
   <rect x="496.330532" y="32.88" width="292.31952" height="292.31952"/>
  </clipPath>
 </defs>
</svg>
